<svg version="1.1" id="Layer_1" xmlns="http://www.w3.org/2000/svg" xmlns:xlink="http://www.w3.org/1999/xlink" x="0px" y="0px"
	 width="100%" viewBox="0 0 667 668" enable-background="new 0 0 667 668" xml:space="preserve">
<path fill="#383E42" opacity="1.000000" stroke="none" 
	d="
M327.000000,1.000000 
	C332.022095,1.000000 337.044189,1.000000 342.677307,1.368577 
	C345.821930,2.289465 348.458710,2.558624 350.873260,3.437946 
	C374.653320,12.098129 398.379425,20.906391 422.154083,29.581619 
	C458.803986,42.954922 495.475891,56.268002 532.146118,69.585487 
	C563.811768,81.085449 595.599060,92.261742 627.114990,104.157616 
	C644.104797,110.570518 655.680664,126.895363 655.972961,145.632248 
	C656.136536,156.121780 656.013489,166.615967 656.000427,177.108032 
	C655.954834,213.743225 655.900879,250.378418 655.443726,287.007996 
	C649.925110,288.291473 644.735779,289.347931 639.743591,291.000183 
	C638.075684,291.552216 635.846130,293.527588 635.706360,295.023621 
	C635.171082,300.750732 635.172791,306.555725 635.398499,312.315033 
	C635.517578,315.352203 637.342102,316.465698 640.588135,315.375305 
	C645.597168,313.692657 650.746582,312.427643 655.910339,311.449585 
	C655.936584,317.947174 655.888916,323.980743 655.442749,330.012939 
	C650.554199,331.114227 646.099304,332.400696 641.564087,333.266388 
	C637.267639,334.086487 635.299561,336.670929 635.137634,340.752075 
	C634.966919,345.055084 634.853882,349.381744 635.108459,353.674774 
	C635.412109,358.795135 636.877014,359.544708 641.858643,358.223938 
	C646.472351,357.000732 651.158813,356.052216 655.897522,355.445068 
	C655.933350,361.609833 655.884888,367.312225 655.442139,373.013672 
	C649.626831,374.430237 644.169006,375.726898 638.813171,377.358398 
	C637.618103,377.722412 635.947754,379.234833 635.913025,380.266144 
	C635.663696,387.688660 635.779541,395.123444 635.779541,402.695068 
	C642.733337,401.061157 649.280151,399.522888 655.905029,398.448486 
	C655.989502,439.574738 656.020813,480.237152 655.959290,520.899475 
	C655.953857,524.481750 655.614136,528.113586 654.963562,531.636292 
	C652.041748,547.455872 642.721130,558.984619 628.220703,564.678467 
	C599.403015,575.994080 570.057678,585.963928 540.948975,596.540833 
	C508.958893,608.164734 476.983887,619.830261 445.013794,631.508972 
	C428.650330,637.486633 412.348236,643.633972 395.952118,649.520081 
	C379.107758,655.567017 362.198700,661.435608 345.276154,667.260742 
	C342.631256,668.171204 339.764282,668.436401 337.000000,669.000000 
	C335.933319,669.000000 334.866669,669.000000 333.227356,668.611328 
	C329.588470,667.841553 326.336121,667.992798 323.485260,666.995789 
	C298.669525,658.317810 273.893738,649.522461 249.167999,640.590637 
	C212.461624,627.330872 175.791306,613.970947 139.132874,600.579163 
	C107.927849,589.179565 76.896957,577.285278 45.529205,566.355652 
	C25.154900,559.256470 12.820812,541.426697 12.982628,520.922241 
	C13.066769,510.260437 12.982301,499.597351 13.000323,488.934906 
	C13.051566,458.618011 13.116337,428.301086 13.574492,397.989807 
	C18.782991,399.201294 23.596918,400.390991 28.400938,401.619415 
	C31.094156,402.308105 33.033043,402.043060 33.002422,398.566345 
	C32.951290,392.760925 33.137924,386.947784 32.871719,381.154114 
	C32.811954,379.853455 31.538153,377.832275 30.411839,377.487762 
	C24.737612,375.752045 18.927174,374.461639 13.090115,372.550903 
	C13.064965,366.053040 13.114247,360.019165 13.526932,354.058838 
	C18.819269,355.552460 23.774410,356.889038 28.667471,358.423553 
	C31.688587,359.370972 33.060722,358.579865 33.015766,355.308380 
	C32.938316,349.672241 33.161198,344.025879 32.879395,338.402771 
	C32.806034,336.938995 31.610016,334.623871 30.454525,334.275482 
	C24.777086,332.563599 18.939518,331.382812 13.084476,329.550415 
	C13.061701,323.052704 13.112949,317.018951 13.528699,311.056702 
	C19.906496,312.771698 25.919790,314.415222 32.825111,316.302521 
	C32.825111,308.083893 32.896137,300.712402 32.722389,293.346649 
	C32.703678,292.553314 31.382875,291.331421 30.463013,291.093506 
	C24.724308,289.609314 18.927795,288.348602 13.076979,286.549438 
	C13.001493,241.458282 12.969394,196.831512 13.041439,152.204926 
	C13.049102,147.458435 13.177487,142.616562 14.090617,137.984695 
	C17.062342,122.910576 25.994633,111.712723 39.584663,105.438065 
	C52.561729,99.446434 66.458801,95.452461 79.936096,90.538239 
	C115.675583,77.506561 151.403641,64.443504 187.142181,51.409264 
	C219.093216,39.756367 251.034714,28.076971 283.015503,16.506222 
	C297.633545,11.217358 312.335876,6.161519 327.000000,1.000000 
M229.499817,286.353394 
	C364.757355,286.353394 500.014893,286.353394 635.432251,286.353394 
	C635.556641,284.939789 635.689697,284.131531 635.689941,283.323212 
	C635.700806,241.826736 635.853149,200.329437 635.631775,158.834137 
	C635.533081,140.341888 623.887634,124.463417 606.544983,118.143166 
	C521.379395,87.105965 436.190002,56.134129 351.037292,25.061590 
	C339.621277,20.895849 328.416351,20.981039 317.049835,25.127237 
	C232.026764,56.141304 147.003586,87.155304 61.934441,118.042686 
	C44.299412,124.445717 32.739384,141.870590 32.888893,159.246048 
	C33.238750,199.906265 33.000706,240.571518 33.000706,281.234741 
	C33.000706,282.850555 33.000706,284.466370 33.000706,286.353455 
	C98.548111,286.353455 163.523956,286.353455 229.499817,286.353394 
M418.500000,407.153015 
	C290.094879,407.153015 161.689774,407.153015 33.001751,407.153015 
	C33.001751,409.836578 33.001751,411.660065 33.001751,413.483551 
	C33.001759,445.315613 33.427044,477.155640 32.830715,508.976532 
	C32.510166,526.081360 43.078312,544.569397 62.778172,551.707458 
	C147.810196,582.518250 232.770370,613.527405 317.744019,644.499146 
	C328.624115,648.464844 339.394958,648.601807 350.318390,644.614441 
	C435.440125,613.543030 520.590027,582.548584 605.711182,551.475647 
	C624.800964,544.507080 635.728760,528.654724 635.738708,508.282135 
	C635.754211,476.616730 635.742859,444.951324 635.742859,413.285919 
	C635.742859,411.360870 635.742859,409.435822 635.742859,407.153137 
	C563.121399,407.153137 491.310699,407.153137 418.500000,407.153015 
M288.564453,350.066162 
	C288.674622,351.059235 288.763794,352.055145 288.898163,353.044952 
	C290.202881,362.653442 296.597931,368.988861 305.449341,369.451813 
	C315.386932,369.971527 322.552887,364.816162 324.202911,354.700104 
	C325.063507,349.424133 324.823151,343.674377 323.694946,338.437012 
	C321.990509,330.524994 315.329132,325.875031 307.307617,325.565063 
	C299.409882,325.259857 292.639893,329.626099 290.156647,337.432251 
	C288.972839,341.153625 289.042084,345.273590 288.564453,350.066162 
M233.961777,358.422424 
	C232.748306,362.703461 229.255875,362.602905 225.891083,362.476837 
	C221.624039,362.316864 219.180817,359.964691 218.738403,355.828369 
	C215.761887,355.828369 213.008026,355.828369 209.640717,355.828369 
	C210.382050,358.116211 210.710892,360.101227 211.619034,361.771179 
	C216.371109,370.509460 233.537857,372.430328 240.186874,365.053070 
	C244.298325,360.491302 243.948776,353.003998 238.889343,349.017792 
	C236.090393,346.812561 232.532211,345.543854 229.253616,343.984741 
	C227.307755,343.059448 224.968018,342.749725 223.311050,341.495331 
	C221.922577,340.444122 220.198746,338.112946 220.549408,336.909973 
	C221.020859,335.292572 223.155472,333.508514 224.908310,333.040863 
	C229.756393,331.747375 233.332657,333.581696 234.412140,338.577637 
	C237.405960,338.577637 240.014694,338.577637 242.788376,338.577637 
	C242.714081,337.493774 242.791458,336.643524 242.582092,335.871033 
	C240.184738,327.025726 228.923340,322.841217 218.976517,327.077606 
	C214.676163,328.909149 211.757294,331.949127 211.383774,336.749237 
	C211.028549,341.314362 213.081879,344.960480 217.044128,347.081818 
	C220.683136,349.030121 224.813492,350.081421 228.387161,352.123352 
	C230.581863,353.377380 232.137054,355.750732 233.961777,358.422424 
M272.399200,359.921143 
	C266.456573,364.903778 260.145599,363.138367 257.464264,355.880066 
	C254.665726,355.880066 251.930176,355.880066 249.044907,355.880066 
	C249.114365,356.887970 249.064865,357.559296 249.218246,358.180511 
	C250.752640,364.394958 255.049728,367.862335 261.036896,368.931976 
	C267.713379,370.124725 274.498901,370.322174 279.536987,364.547607 
	C283.452881,360.059265 282.759003,352.772644 277.806305,348.946838 
	C274.983490,346.766357 271.426605,345.515656 268.151337,343.948517 
	C265.910217,342.876221 263.391083,342.275513 261.344360,340.933136 
	C258.589050,339.126007 258.418030,336.567444 260.833252,334.217621 
	C263.383423,331.736542 270.269226,331.918304 271.584564,335.063538 
	C273.929871,340.671722 277.871338,338.602112 281.671539,338.528931 
	C280.790436,328.729279 271.708923,323.489746 260.710510,326.138794 
	C254.832306,327.554626 251.089172,331.268646 250.412994,336.356201 
	C249.777420,341.138367 252.298798,345.462616 257.822845,348.188080 
	C261.236572,349.872345 264.934814,350.971344 268.464691,352.431427 
	C271.436646,353.660767 273.764923,355.403809 272.399200,359.921143 
M483.507935,326.173370 
	C479.401306,326.173370 475.294708,326.173370 471.004547,326.173370 
	C471.004547,340.683075 471.004547,354.593811 471.004547,368.635590 
	C480.536133,368.635590 489.874847,368.635590 499.222351,368.635590 
	C499.222351,366.319946 499.222351,364.377380 499.222351,361.998322 
	C492.761292,361.998322 486.515259,361.998322 480.100220,361.998322 
	C480.100220,357.994873 480.100220,354.434265 480.100220,350.371765 
	C485.601929,350.371765 490.842010,350.371765 496.030518,350.371765 
	C496.030518,347.823853 496.030518,345.787506 496.030518,343.404236 
	C490.510345,343.404236 485.408783,343.404236 480.223450,343.404236 
	C480.223450,339.843567 480.223450,336.653198 480.223450,333.124786 
	C486.719788,333.124786 492.825989,333.124786 499.158295,333.124786 
	C499.158295,330.704712 499.158295,328.637787 499.158295,326.173401 
	C494.081055,326.173401 489.291229,326.173401 483.507935,326.173370 
M180.960922,329.317688 
	C176.118866,342.367981 171.276825,355.418274 166.323318,368.768951 
	C169.853622,368.768951 172.778809,368.768951 175.656708,368.768951 
	C176.400040,366.660217 176.869949,364.678070 177.795303,362.938141 
	C178.379059,361.840485 179.587494,360.413849 180.613083,360.330383 
	C184.417908,360.020569 188.273285,360.055573 192.086029,360.312317 
	C193.046249,360.377014 194.312790,361.565308 194.768066,362.547913 
	C198.038391,369.606110 197.983521,369.631531 206.187714,368.538086 
	C201.107361,354.947540 196.134628,341.405243 190.944580,327.946777 
	C189.794586,324.964752 183.526855,325.485840 180.960922,329.317688 
M419.806458,340.664429 
	C418.564575,337.402344 417.176880,334.186523 416.123291,330.864716 
	C415.144165,327.777771 414.016815,325.946686 410.042480,325.963013 
	C406.175812,325.978943 405.340393,328.003510 404.363647,330.739166 
	C402.687500,335.433624 400.889679,340.084503 399.168579,344.763092 
	C396.255341,352.682373 393.362061,360.608978 390.342499,368.854431 
	C393.737061,368.854431 396.540283,368.854431 400.007416,368.854431 
	C399.709198,359.053497 406.540039,359.817505 413.154266,360.184113 
	C414.641510,360.266510 416.137238,360.196228 417.731628,360.196228 
	C418.905792,363.103210 419.302246,366.813721 421.335358,368.330536 
	C423.266479,369.771271 426.909790,368.917114 430.408417,369.104675 
	C426.775238,359.407135 423.403503,350.407349 419.806458,340.664429 
M351.143646,369.448944 
	C360.857422,368.190094 365.708008,363.535461 365.929352,355.048309 
	C364.971527,354.968536 364.002289,354.840332 363.030609,354.817474 
	C361.387939,354.778870 359.743713,354.806885 358.245636,354.806885 
	C355.399078,361.506500 353.012115,363.097015 347.373779,362.102325 
	C341.872772,361.131866 340.981689,356.722229 340.731323,352.324249 
	C340.496765,348.204163 340.513367,343.969116 341.209625,339.920593 
	C342.221924,334.034332 347.602722,330.936707 352.833588,333.470825 
	C355.327209,334.678864 356.876556,337.836182 359.233429,340.547455 
	C360.913818,340.547455 363.507233,340.547455 366.111359,340.547455 
	C365.471344,332.104431 360.762970,326.962006 352.918793,325.879303 
	C343.491791,324.578125 335.742218,328.318146 333.352417,336.576233 
	C331.869110,341.701904 331.596344,347.416718 331.958344,352.787689 
	C332.704010,363.850555 339.127777,369.322327 351.143646,369.448944 
M429.190643,331.406647 
	C430.488647,332.001587 431.750946,332.988678 433.092010,333.110748 
	C435.979553,333.373566 438.907623,333.191467 442.163879,333.191467 
	C442.163879,345.535675 442.163879,357.120453 442.163879,368.723877 
	C445.260803,368.723877 447.988190,368.723877 451.257690,368.723877 
	C451.257690,356.753143 451.257690,345.056427 451.257690,333.049683 
	C455.744293,333.049683 459.681091,333.049683 463.715820,333.049683 
	C463.715820,330.658478 463.715820,328.606049 463.715820,326.425232 
	C452.190613,326.425232 440.957550,326.425232 429.437408,326.425232 
	C429.340027,327.938873 429.257477,329.221832 429.190643,331.406647 
M380.404144,369.000092 
	C383.156311,369.429504 383.227600,367.723633 383.207428,365.689789 
	C383.141479,359.046112 383.183472,352.401398 383.183655,345.757080 
	C383.183838,339.345428 383.183685,332.933777 383.183685,326.553375 
	C379.954010,326.553375 377.412933,326.553375 374.812042,326.553375 
	C374.812042,340.810364 374.812042,354.693420 374.812042,369.001129 
	C376.516296,369.001129 377.975128,369.001129 380.404144,369.000092 
z"/>
<path fill="#FFFFFF" opacity="1.000000" stroke="none" 
	d="
M13.175783,397.984192 
	C13.116337,428.301086 13.051566,458.618011 13.000323,488.934906 
	C12.982301,499.597351 13.066769,510.260437 12.982628,520.922241 
	C12.820812,541.426697 25.154900,559.256470 45.529205,566.355652 
	C76.896957,577.285278 107.927849,589.179565 139.132874,600.579163 
	C175.791306,613.970947 212.461624,627.330872 249.167999,640.590637 
	C273.893738,649.522461 298.669525,658.317810 323.485260,666.995789 
	C326.336121,667.992798 329.588470,667.841553 332.827332,668.611328 
	C222.369812,669.000000 111.739632,669.000000 1.054726,669.000000 
	C1.054726,446.443237 1.054726,223.886459 1.054726,1.000000 
	C109.354004,1.000000 217.708344,1.000000 326.531342,1.000000 
	C312.335876,6.161519 297.633545,11.217358 283.015503,16.506222 
	C251.034714,28.076971 219.093216,39.756367 187.142181,51.409264 
	C151.403641,64.443504 115.675583,77.506561 79.936096,90.538239 
	C66.458801,95.452461 52.561729,99.446434 39.584663,105.438065 
	C25.994633,111.712723 17.062342,122.910576 14.090617,137.984695 
	C13.177487,142.616562 13.049102,147.458435 13.041439,152.204926 
	C12.969394,196.831512 13.001493,241.458282 13.009495,287.012878 
	C13.065046,295.622223 13.114621,303.303741 13.164196,310.985229 
	C13.112949,317.018951 13.061701,323.052704 13.013350,330.013397 
	C13.065342,338.622009 13.114435,346.303650 13.163529,353.985291 
	C13.114247,360.019165 13.064965,366.053040 13.016373,373.013489 
	C13.069969,381.954803 13.122876,389.969482 13.175783,397.984192 
z"/>
<path fill="#FFFFFF" opacity="1.000000" stroke="none" 
	d="
M337.468658,669.000000 
	C339.764282,668.436401 342.631256,668.171204 345.276154,667.260742 
	C362.198700,661.435608 379.107758,655.567017 395.952118,649.520081 
	C412.348236,643.633972 428.650330,637.486633 445.013794,631.508972 
	C476.983887,619.830261 508.958893,608.164734 540.948975,596.540833 
	C570.057678,585.963928 599.403015,575.994080 628.220703,564.678467 
	C642.721130,558.984619 652.041748,547.455872 654.963562,531.636292 
	C655.614136,528.113586 655.953857,524.481750 655.959290,520.899475 
	C656.020813,480.237152 655.989502,439.574738 655.980103,397.986084 
	C655.930237,389.044800 655.883301,381.029694 655.836426,373.014618 
	C655.884888,367.312225 655.933350,361.609833 655.974243,354.983093 
	C655.924805,346.043945 655.883057,338.029114 655.841248,330.014282 
	C655.888916,323.980743 655.936584,317.947174 655.984375,310.987030 
	C655.939636,302.378143 655.894836,294.695892 655.850037,287.013611 
	C655.900879,250.378418 655.954834,213.743225 656.000427,177.108032 
	C656.013489,166.615967 656.136536,156.121780 655.972961,145.632248 
	C655.680664,126.895363 644.104797,110.570518 627.114990,104.157616 
	C595.599060,92.261742 563.811768,81.085449 532.146118,69.585487 
	C495.475891,56.268002 458.803986,42.954922 422.154083,29.581619 
	C398.379425,20.906391 374.653320,12.098129 350.873260,3.437946 
	C348.458710,2.558624 345.821930,2.289465 343.144165,1.368577 
	C451.297577,1.000000 559.595154,1.000000 667.946350,1.000000 
	C667.946350,223.557358 667.946350,446.114746 667.946350,669.000000 
	C557.979309,669.000000 447.958313,669.000000 337.468658,669.000000 
z"/>
<path fill="#FEFEFE" opacity="1.000000" stroke="none" 
	d="
M228.999817,286.353424 
	C163.523956,286.353455 98.548111,286.353455 33.000706,286.353455 
	C33.000706,284.466370 33.000706,282.850555 33.000706,281.234741 
	C33.000706,240.571518 33.238750,199.906265 32.888893,159.246048 
	C32.739384,141.870590 44.299412,124.445717 61.934441,118.042686 
	C147.003586,87.155304 232.026764,56.141304 317.049835,25.127237 
	C328.416351,20.981039 339.621277,20.895849 351.037292,25.061590 
	C436.190002,56.134129 521.379395,87.105965 606.544983,118.143166 
	C623.887634,124.463417 635.533081,140.341888 635.631775,158.834137 
	C635.853149,200.329437 635.700806,241.826736 635.689941,283.323212 
	C635.689697,284.131531 635.556641,284.939789 635.432251,286.353394 
	C500.014893,286.353394 364.757355,286.353394 228.999817,286.353424 
M133.893066,132.320038 
	C128.404251,147.047638 122.915443,161.775238 117.307533,176.822418 
	C121.232376,176.822418 124.503113,176.822418 127.802589,176.822418 
	C129.032211,173.454285 130.205917,170.239319 131.386017,167.006836 
	C134.579575,167.006836 137.398712,167.006836 140.217834,167.006836 
	C143.026474,167.006836 145.835129,167.006836 148.502197,167.006836 
	C152.684296,177.666504 152.684296,177.666504 162.009888,176.664322 
	C162.009888,176.176590 162.149857,175.633911 161.989624,175.202805 
	C156.501144,160.434723 151.048401,145.652298 145.347717,130.966187 
	C144.898956,129.810104 142.721329,128.732971 141.302643,128.672989 
	C138.631836,128.560135 135.066879,127.149422 133.893066,132.320038 
M515.932190,172.474899 
	C521.889648,178.874695 525.863770,179.283432 535.275024,174.502106 
	C537.457520,179.255280 541.308350,176.185989 544.575562,176.907211 
	C544.575562,159.743774 544.575562,143.016617 544.575562,126.149139 
	C541.284058,126.149139 538.255066,126.149139 534.927429,126.149139 
	C534.927429,131.913544 534.927429,137.338593 534.927429,142.879059 
	C523.775452,138.303207 516.461304,140.759705 513.507080,150.212097 
	C511.195465,157.608231 511.369690,164.973816 515.932190,172.474899 
M406.932739,133.620941 
	C393.836090,121.996048 375.749847,127.696747 372.635132,144.845352 
	C371.594696,150.573532 371.970978,156.840073 373.049255,162.608215 
	C374.803802,171.993774 381.481903,177.302078 390.935120,177.720779 
	C400.358429,178.138168 411.165619,173.118637 410.858276,161.104919 
	C407.775543,161.104919 404.693756,161.104919 401.707336,161.104919 
	C399.696960,167.688721 397.089752,169.787857 391.526581,169.526810 
	C386.504944,169.291168 383.268066,166.626419 382.642548,160.574417 
	C382.069000,155.025131 382.099335,149.250412 382.983154,143.755066 
	C384.069366,137.000931 390.739441,133.756195 396.626099,137.022720 
	C399.175079,138.437164 400.668640,141.753616 403.156525,144.846161 
	C405.012299,144.846161 407.967743,144.846161 412.197937,144.846161 
	C410.414734,140.910797 408.897217,137.561707 406.932739,133.620941 
M213.171005,127.623230 
	C210.248428,126.813530 207.325836,126.003830 204.049713,125.096184 
	C204.049713,143.178467 204.049713,159.891602 204.049713,177.518387 
	C207.575226,176.828735 210.687408,176.219925 214.955246,175.385071 
	C223.470840,181.016098 233.372757,176.997620 235.586487,165.337982 
	C236.227615,161.961334 236.226440,158.370605 235.940079,154.926208 
	C234.799240,141.203842 223.003891,136.632065 214.205780,142.870804 
	C214.061722,142.972946 213.631485,142.671539 213.186188,142.501801 
	C213.186188,137.902176 213.186188,133.251358 213.171005,127.623230 
M295.879486,177.629272 
	C305.276917,177.330780 310.121979,172.569702 311.011292,162.759705 
	C312.149902,150.199265 308.231842,142.216797 299.882629,140.662399 
	C297.697968,140.255646 295.289276,140.630112 293.057617,141.044861 
	C291.545959,141.325821 290.163879,142.304047 288.084290,143.266373 
	C288.084290,137.178345 288.084290,131.638123 288.084290,126.038971 
	C284.802948,126.038971 282.048126,126.038971 279.148926,126.038971 
	C279.148926,143.116226 279.148926,159.964142 279.148926,177.535126 
	C282.631866,176.877457 285.642090,176.309067 288.652313,175.740662 
	C288.531830,175.400345 288.411377,175.060013 288.290924,174.719681 
	C290.563354,175.635056 292.835785,176.550430 295.879486,177.629272 
M240.745651,163.494553 
	C239.309296,168.384277 240.624512,172.512131 244.780991,175.310913 
	C250.188324,178.951965 255.735550,178.476410 259.538300,175.745132 
	C264.519135,176.414871 268.114990,176.898376 271.011505,177.287857 
	C271.011505,169.205429 271.068115,161.786423 270.995331,154.368683 
	C270.924774,147.175949 268.202271,143.005875 262.580719,141.170197 
	C255.269928,138.782898 246.634247,140.854523 243.048401,146.078125 
	C241.996414,147.610596 241.557968,149.564224 240.220474,152.836395 
	C244.741104,151.741730 247.896973,151.044449 251.013474,150.201538 
	C253.472672,149.536423 256.140656,147.703094 258.232422,148.247238 
	C259.841125,148.665726 260.697632,151.975998 262.265350,154.640671 
	C253.415131,155.441147 245.069794,153.925842 240.745651,163.494553 
M333.999054,176.510376 
	C335.274475,176.059937 336.633057,175.076767 337.809479,175.260422 
	C341.140961,175.780472 344.397858,176.778152 347.011658,177.422043 
	C347.011658,168.975174 347.066010,161.696396 346.996368,154.418793 
	C346.927338,147.206070 344.233337,143.038513 338.632294,141.185074 
	C331.368195,138.781326 322.682953,140.834137 319.079071,146.029099 
	C318.012909,147.566025 317.556366,149.525833 316.198761,152.783691 
	C320.703125,151.739456 323.873413,151.092331 326.992126,150.253479 
	C329.446533,149.593292 332.095154,147.692429 334.173950,148.226181 
	C335.806427,148.645325 336.699768,151.943161 338.201294,154.424637 
	C333.089600,154.995193 329.242737,155.068039 325.573639,155.912872 
	C319.150116,157.391968 315.726501,161.941818 316.202728,167.567001 
	C316.677734,173.177246 321.497620,177.476471 327.892151,177.718018 
	C329.672516,177.785248 331.478577,177.172272 333.999054,176.510376 
M505.142883,141.206711 
	C502.211426,141.206711 499.279968,141.206711 495.992096,141.206711 
	C495.992096,148.922668 495.872040,156.369980 496.044434,163.810547 
	C496.126587,167.355316 494.362305,169.025726 491.261963,169.686020 
	C486.669312,170.664154 484.135132,168.564194 484.044800,163.460510 
	C483.913544,156.043777 484.011200,148.623016 484.011200,141.147644 
	C480.616821,141.147644 477.826019,141.147644 474.842529,141.147644 
	C474.842529,150.235550 474.442902,159.195908 474.974060,168.100769 
	C475.370209,174.741913 481.006805,178.659546 487.686340,177.593277 
	C490.522400,177.140549 493.213898,175.782028 495.935089,174.847565 
	C498.339508,179.148590 502.205353,176.343277 505.562988,176.743042 
	C505.689240,175.802963 505.811096,175.321304 505.810211,174.839859 
	C505.789886,163.871414 505.756134,152.903000 505.142883,141.206711 
M449.780029,140.235428 
	C435.626007,142.998825 429.239624,158.504654 437.254150,170.647766 
	C443.411407,179.976852 458.866211,180.253159 465.018433,170.920868 
	C469.474854,164.160950 469.405487,156.718658 466.355164,149.455490 
	C463.490204,142.633698 457.581116,140.357590 449.780029,140.235428 
M325.820831,97.525238 
	C333.009521,90.117683 339.355988,95.846275 346.593872,99.353737 
	C341.499390,88.971054 344.931091,81.746384 354.367737,75.957840 
	C342.779755,77.590355 336.568359,72.713921 334.671112,60.533970 
	C333.092926,63.702942 332.135498,65.050079 331.726471,66.547058 
	C330.027649,72.764305 326.428345,76.083542 319.633423,75.377998 
	C317.976624,75.205978 316.232178,75.878181 312.671051,76.471718 
	C324.091309,81.609314 325.679504,89.427544 321.048309,99.823380 
	C323.390533,98.736801 324.266998,98.330185 325.820831,97.525238 
M427.851929,133.579239 
	C427.851929,131.133545 427.851929,128.687866 427.851929,126.055992 
	C424.418518,126.055992 421.520752,126.055992 418.495544,126.055992 
	C418.495544,143.155472 418.495544,159.981293 418.495544,176.679352 
	C421.753937,176.679352 424.660156,176.679352 427.851929,176.679352 
	C427.851929,162.410004 427.851929,148.483963 427.851929,133.579239 
M168.719849,125.828491 
	C168.195999,127.197067 167.255341,128.554886 167.219711,129.936066 
	C167.056946,136.244919 167.148117,142.560303 167.148087,148.873352 
	C167.148041,158.127319 167.148071,167.381287 167.148071,176.769592 
	C170.597015,176.769592 173.500198,176.769592 176.476807,176.769592 
	C176.476807,159.693710 176.476807,142.875687 176.476807,125.790733 
	C173.955902,125.790733 171.805969,125.790733 168.719849,125.828491 
M293.356049,230.847656 
	C294.318207,233.830795 295.541595,236.760010 296.171509,239.811722 
	C296.847565,243.086945 297.091095,246.320206 302.272827,244.226242 
	C301.005524,238.502167 299.763672,232.893173 298.347015,226.494507 
	C300.501678,224.870163 302.517609,221.204529 300.447510,217.484879 
	C298.955261,214.803513 295.732758,212.007401 292.844299,211.421921 
	C287.959564,210.431793 282.728546,211.150085 277.147186,211.150085 
	C277.147186,221.962906 277.048218,232.236084 277.310181,242.500015 
	C277.334625,243.457809 279.642731,244.357300 280.890503,245.283859 
	C281.326080,244.885162 281.761627,244.486465 282.197205,244.087769 
	C282.197205,239.518692 282.197205,234.949600 282.197205,229.902725 
	C286.040680,230.100250 289.321381,230.268875 293.356049,230.847656 
M457.647461,230.112076 
	C458.636566,213.702759 449.189148,208.429398 432.467194,211.853180 
	C432.467194,222.724091 432.467194,233.605118 432.467194,244.422302 
	C448.364471,247.139648 455.565460,243.206375 457.647461,230.112076 
M247.123169,226.503571 
	C247.123169,232.575851 247.123169,238.648117 247.123169,245.004120 
	C254.325821,245.004120 260.633606,245.082596 266.935364,244.922241 
	C267.917236,244.897247 268.871368,243.782944 269.838348,243.172363 
	C268.820038,242.446396 267.829193,241.143509 266.778748,241.093521 
	C262.020966,240.867081 257.246307,240.994461 252.408859,240.994461 
	C252.408859,236.986954 252.408859,233.642761 252.408859,230.008987 
	C256.675690,230.008987 260.496918,230.159637 264.292816,229.915573 
	C265.406067,229.843979 266.447266,228.651688 267.521484,227.973038 
	C266.429291,227.312164 265.367249,226.149078 264.239441,226.081375 
	C260.318298,225.845993 256.374390,225.990433 252.242767,225.990433 
	C252.242767,222.081299 252.242767,218.847931 252.242767,215.003693 
	C257.290588,215.003693 262.068298,215.109222 266.833771,214.915253 
	C267.794312,214.876160 268.708649,213.701462 269.644287,213.050339 
	C268.908295,212.372742 268.185669,211.124573 267.434174,211.106949 
	C260.848328,210.952454 254.257324,211.017532 247.123367,211.017532 
	C247.123367,216.275421 247.123367,220.890656 247.123169,226.503571 
M424.595062,244.306656 
	C425.565125,241.288818 423.779877,240.952942 421.452026,240.976730 
	C416.704254,241.025269 411.955658,240.991257 407.354187,240.991257 
	C407.354187,236.869019 407.354187,233.631378 407.354187,230.012817 
	C411.055389,230.012817 414.375977,230.216873 417.653015,229.927612 
	C419.316345,229.780792 420.901154,228.744736 422.521484,228.110703 
	C420.974976,227.402878 419.471069,226.229660 417.873138,226.083267 
	C414.452423,225.769852 410.983093,225.987244 407.382446,225.987244 
	C407.382446,222.045975 407.382446,218.698532 407.382446,214.992615 
	C412.616364,214.992615 417.425568,215.078796 422.225861,214.910049 
	C423.051544,214.881058 423.839111,213.767502 424.644287,213.154907 
	C423.942261,212.444107 423.254669,211.133347 422.535919,211.116058 
	C415.936920,210.957153 409.332489,211.022491 402.548340,211.022491 
	C402.548340,222.627182 402.548340,233.640747 402.548340,244.809601 
	C409.937500,244.809601 416.903961,244.809601 424.595062,244.306656 
M194.851898,172.303986 
	C194.851898,162.029449 194.851898,151.754913 194.851898,141.373016 
	C191.379181,141.373016 188.368835,141.373016 185.381989,141.373016 
	C185.381989,153.360184 185.381989,164.947983 185.381989,177.024292 
	C187.558014,177.024292 189.527634,176.843887 191.450989,177.065338 
	C194.562866,177.423660 195.185181,175.830948 194.851898,172.303986 
M230.868530,239.579514 
	C223.563919,242.606064 218.573364,240.077240 217.652985,232.373749 
	C217.208542,228.653824 217.471588,224.707993 218.216446,221.026764 
	C218.973572,217.285004 221.833817,215.127686 225.826447,215.043564 
	C229.531601,214.965500 232.069138,216.634735 233.627289,220.121796 
	C234.143005,221.275955 235.669952,221.978287 236.734558,222.887192 
	C237.046982,221.329086 238.009094,219.540405 237.552948,218.255051 
	C236.037933,213.985916 232.640884,211.613403 228.174744,211.073761 
	C223.048309,210.454330 218.589523,211.853378 215.427292,216.203735 
	C211.606766,221.459747 211.724472,234.847992 215.583633,240.023972 
	C218.986542,244.587997 225.100479,246.248520 230.838715,244.167191 
	C235.684189,242.409714 238.085312,238.699417 237.581436,232.066422 
	C235.864120,233.486420 234.636368,234.244720 233.760330,235.296082 
	C232.827545,236.415558 232.227646,237.812393 230.868530,239.579514 
M368.494934,230.016800 
	C369.160583,230.016769 369.882874,230.185837 370.481445,229.985443 
	C372.378571,229.350281 374.229462,228.577103 376.098236,227.857285 
	C374.300751,227.232651 372.538727,226.244568 370.697845,226.065109 
	C367.625519,225.765610 364.502747,225.983368 361.275696,225.983368 
	C361.275696,222.032837 361.275696,218.797287 361.275696,215.007050 
	C366.365845,215.007050 371.154022,215.111603 375.930298,214.919586 
	C376.895660,214.880768 377.815887,213.719772 378.756927,213.076141 
	C377.866638,212.382248 376.991943,211.111588 376.083557,211.087051 
	C369.644836,210.913116 363.199188,210.994476 356.163269,210.994476 
	C356.163269,221.994598 356.074829,232.428070 356.327637,242.853241 
	C356.348328,243.706573 358.694397,244.503510 361.115845,246.078430 
	C361.115845,239.631027 361.115845,235.050812 361.115845,230.016830 
	C363.624878,230.016830 365.585510,230.016830 368.494934,230.016800 
M322.355652,244.701294 
	C322.650177,239.302750 323.036530,233.907166 323.210449,228.504730 
	C323.352020,224.106598 323.239227,219.700287 323.239227,214.973465 
	C326.625580,214.973465 329.118530,215.122086 331.576538,214.894135 
	C332.455658,214.812607 333.250336,213.820694 334.083557,213.244293 
	C333.246338,212.505096 332.424805,211.146149 331.569458,211.124542 
	C324.596191,210.948273 317.614868,210.947433 310.641113,211.111099 
	C309.742279,211.132202 308.872681,212.399628 307.989502,213.089691 
	C308.931793,213.722092 309.828491,214.797623 310.825256,214.900101 
	C313.362549,215.160980 315.944550,214.986893 318.857697,214.986893 
	C318.857697,224.181229 318.736603,232.472870 318.974976,240.754166 
	C319.015503,242.161011 320.599091,243.523438 322.355652,244.701294 
M390.841766,243.990433 
	C390.912720,234.028870 391.048065,224.066727 390.956329,214.106644 
	C390.947021,213.096893 389.569733,212.099731 388.827271,211.096741 
	C388.121796,212.161316 386.823303,213.215271 386.804016,214.292114 
	C386.640533,223.425720 386.743408,232.563690 386.688599,241.699890 
	C386.673004,244.299316 387.596710,245.474960 390.841766,243.990433 
M341.698792,227.500580 
	C341.701233,232.144791 341.547668,236.797928 341.812866,241.427078 
	C341.881439,242.624481 343.263092,243.746658 344.041595,244.903381 
	C344.713318,243.831192 345.949463,242.768646 345.967987,241.685303 
	C346.123871,232.565414 346.123810,223.440598 345.968323,214.320709 
	C345.949829,213.235397 344.717346,212.170807 344.047577,211.096588 
	C343.267120,212.251328 341.901215,213.363449 341.813477,214.568604 
	C341.525299,218.528564 341.700836,222.522278 341.698792,227.500580 
M186.659836,135.646194 
	C187.937683,135.913879 189.220810,136.428040 190.492325,136.400711 
	C193.667160,136.332443 195.902283,134.410431 195.166840,131.413361 
	C194.723618,129.607162 192.282715,127.332260 190.437805,127.013367 
	C185.422729,126.146523 183.650070,129.753830 186.659836,135.646194 
z"/>
<path fill="#0ECCC6" opacity="1.000000" stroke="none" 
	d="
M419.000000,407.153076 
	C491.310699,407.153137 563.121399,407.153137 635.742859,407.153137 
	C635.742859,409.435822 635.742859,411.360870 635.742859,413.285919 
	C635.742859,444.951324 635.754211,476.616730 635.738708,508.282135 
	C635.728760,528.654724 624.800964,544.507080 605.711182,551.475647 
	C520.590027,582.548584 435.440125,613.543030 350.318390,644.614441 
	C339.394958,648.601807 328.624115,648.464844 317.744019,644.499146 
	C232.770370,613.527405 147.810196,582.518250 62.778172,551.707458 
	C43.078312,544.569397 32.510166,526.081360 32.830715,508.976532 
	C33.427044,477.155640 33.001759,445.315613 33.001751,413.483551 
	C33.001751,411.660065 33.001751,409.836578 33.001751,407.153015 
	C161.689774,407.153015 290.094879,407.153015 419.000000,407.153076 
M259.960022,543.335327 
	C259.960022,537.416138 259.960022,531.496887 259.960022,525.577698 
	C263.408081,531.648315 265.895538,538.052002 268.667847,544.329956 
	C269.438599,546.075317 271.053223,547.447998 272.280701,548.991699 
	C273.361053,547.475708 274.745911,546.091248 275.467499,544.420349 
	C278.192169,538.111267 280.701355,531.709106 283.291168,525.341797 
	C283.651733,525.432495 284.012299,525.523254 284.372864,525.613953 
	C284.372864,533.321167 284.372864,541.028320 284.372864,548.974670 
	C286.056885,548.896851 287.311676,548.838806 288.627777,548.777954 
	C288.627777,537.368835 288.627777,526.299011 288.627777,515.413696 
	C284.154480,513.841797 282.373138,515.847595 281.043274,519.600525 
	C278.468018,526.867981 275.448425,533.978088 272.075287,542.514038 
	C268.612335,533.773499 265.475067,526.495483 262.871399,519.031372 
	C261.422607,514.878052 259.138977,514.165833 255.389954,515.537048 
	C255.389954,526.646301 255.389954,537.583862 255.389954,548.765625 
	C256.897583,548.765625 258.153107,548.765625 259.720917,548.765625 
	C259.803955,547.209351 259.881958,545.748047 259.960022,543.335327 
M436.695526,525.764709 
	C432.906677,522.415894 433.402313,514.452515 425.435181,515.074646 
	C425.435181,526.517761 425.435181,537.587708 425.435181,548.765869 
	C426.988892,548.765869 428.243256,548.765869 430.142761,548.765869 
	C430.142761,540.575195 430.142761,532.607300 430.142761,523.184509 
	C435.494904,531.711548 439.849548,538.973999 444.594086,545.972107 
	C445.729279,547.646545 448.163086,548.440491 450.702698,550.098389 
	C450.702698,537.293884 450.702698,526.226196 450.702698,515.288574 
	C447.384430,514.383545 446.127838,515.348083 446.213318,518.614380 
	C446.392395,525.457703 446.267578,532.309021 446.267578,539.157043 
	C445.905823,539.222107 445.544037,539.287170 445.182281,539.352234 
	C442.472473,535.033203 439.762695,530.714111 436.695526,525.764709 
M418.212433,476.516632 
	C418.288116,473.358276 418.604279,470.183319 418.388123,467.045074 
	C417.969635,460.968964 414.895172,456.292999 408.937286,454.944397 
	C403.932373,453.811432 398.603363,454.110077 393.148651,453.757568 
	C393.148651,460.339111 393.148651,465.826569 393.148651,471.314026 
	C393.148651,476.755157 393.148651,482.196289 393.148651,488.022064 
	C396.936005,488.022064 400.073364,488.044312 403.210297,488.017761 
	C411.191895,487.950226 415.386993,484.921478 418.212433,476.516632 
M476.484894,519.020447 
	C478.923340,520.444153 481.361694,521.868042 483.800201,523.291626 
	C485.218658,524.119690 486.637451,524.947327 488.997101,526.324280 
	C487.178528,517.804199 483.127075,514.776184 475.777679,514.984741 
	C469.057831,515.175354 463.752716,519.642029 463.043823,526.043274 
	C462.697235,529.172852 462.876892,532.363525 462.865051,535.526733 
	C462.843445,541.287659 465.458313,545.520142 470.727417,547.732849 
	C476.498779,550.156494 482.160919,549.526367 487.284393,545.823608 
	C488.109894,545.226990 488.860229,543.960876 488.914551,542.964417 
	C489.109558,539.387085 488.991028,535.792603 488.991028,532.191956 
	C484.662659,532.191956 481.042786,532.191956 477.440674,532.191956 
	C477.266876,535.030640 477.266876,535.030640 485.229034,537.064148 
	C484.084198,539.544312 483.642334,542.903625 481.852142,543.945007 
	C475.619324,547.570679 468.231812,543.279053 467.593475,536.091125 
	C467.373230,533.611328 467.444794,531.092834 467.552124,528.599304 
	C467.803436,522.761108 469.734589,520.542603 476.484894,519.020447 
M318.645477,479.557373 
	C322.172302,486.480804 327.594727,489.280457 334.381378,487.681915 
	C341.215759,486.072144 344.942505,481.095642 345.012360,473.434814 
	C345.035095,470.943420 345.167877,468.433563 344.930054,465.962982 
	C344.282471,459.235260 338.743500,454.259521 331.814758,453.983917 
	C324.732330,453.702209 318.865173,458.030670 318.076874,464.963074 
	C317.559479,469.512726 318.219208,474.196167 318.645477,479.557373 
M244.017883,535.194519 
	C244.016510,532.870850 244.091248,530.544128 243.999802,528.223999 
	C243.700790,520.636414 238.154434,515.183289 230.605606,514.982910 
	C223.119766,514.784180 217.693604,519.493835 216.846130,527.129395 
	C216.554626,529.755798 216.520096,532.438110 216.657974,535.079773 
	C217.091553,543.387451 221.926849,548.642578 229.297989,549.013733 
	C237.318390,549.417480 242.708801,544.682190 244.017883,535.194519 
M360.083405,463.537354 
	C360.083405,460.421783 360.083405,457.306244 360.083405,454.190674 
	C359.584229,453.916870 359.085083,453.643066 358.585907,453.369263 
	C357.561279,454.484863 355.691589,455.569946 355.650085,456.720978 
	C355.392456,463.864624 355.311035,471.033691 355.634186,478.173370 
	C355.903564,484.125214 360.535095,487.743134 367.338745,488.004669 
	C374.687775,488.287170 380.531799,484.797150 380.859161,479.022400 
	C381.326660,470.774994 380.978180,462.481354 380.978180,454.482544 
	C377.185089,453.099213 376.421082,454.720612 376.468536,457.692169 
	C376.569519,464.012512 376.645416,470.341492 376.423737,476.656128 
	C376.254364,481.481354 373.200348,483.983063 368.166687,483.989532 
	C363.157898,483.995972 360.323090,481.464020 360.123505,476.497986 
	C359.963287,472.511353 360.086151,468.513336 360.083405,463.537354 
M362.079956,517.811462 
	C361.050659,516.701172 360.021362,515.590820 358.992035,514.480469 
	C358.492706,514.828613 357.993378,515.176758 357.494049,515.524841 
	C357.494049,522.658936 357.599976,529.795044 357.459900,536.926331 
	C357.351624,542.437988 354.364441,545.107849 348.895996,544.989258 
	C343.786957,544.878540 341.184113,542.208740 341.105011,536.725647 
	C341.008972,530.070374 341.069427,523.412903 341.033844,516.756531 
	C341.031311,516.287537 340.795166,515.819824 340.598602,515.097900 
	C339.349518,515.157837 338.118896,515.216919 336.510315,515.294067 
	C336.510315,523.045654 336.381805,530.517334 336.547424,537.982422 
	C336.704956,545.084961 341.329193,548.998291 349.145538,549.006042 
	C357.216125,549.014099 361.943542,544.951843 362.059174,537.722839 
	C362.160278,531.400513 362.081940,525.075256 362.079956,517.811462 
M306.949890,540.554688 
	C306.949890,538.799561 306.949890,537.044495 306.949890,534.946106 
	C310.981049,534.946106 314.324188,535.227295 317.601959,534.883972 
	C323.331879,534.283813 326.866119,530.273315 326.836060,524.942810 
	C326.807220,519.824646 323.442078,515.711792 317.965515,515.204590 
	C312.899689,514.735413 307.756195,515.104614 302.159302,515.104614 
	C302.159302,525.828857 302.054230,536.118835 302.315521,546.399475 
	C302.342834,547.473267 304.538116,548.491882 305.727509,549.536133 
	C306.134949,549.162231 306.542419,548.788330 306.949860,548.414429 
	C306.949860,546.109314 306.949860,543.804138 306.949890,540.554688 
M256.948059,484.564545 
	C261.407440,488.581573 266.538116,489.077057 271.784332,486.755920 
	C276.015045,484.884033 278.359680,481.405884 277.581848,475.924957 
	C275.961182,476.525177 274.260529,477.386658 273.702087,478.724792 
	C272.221893,482.271820 269.582336,484.599518 266.097656,483.760742 
	C263.256897,483.076904 259.185608,480.879089 258.644562,478.633545 
	C257.483551,473.814758 257.460175,468.349701 258.573669,463.518646 
	C259.097443,461.246216 263.103119,458.974396 265.930450,458.239807 
	C269.388855,457.341248 272.582825,459.466400 273.467499,463.183075 
	C274.258148,466.504669 275.837128,466.410950 278.240723,465.459900 
	C277.642822,458.901489 274.515778,455.247772 268.774445,454.161804 
	C262.614258,452.996613 256.248260,455.596619 254.352005,461.265930 
	C251.785599,468.938629 251.013443,476.876434 256.948059,484.564545 
M182.647964,540.348389 
	C186.049103,547.469910 191.442780,550.335449 198.246674,548.635437 
	C204.184235,547.151917 207.237839,543.102478 206.690536,535.753967 
	C204.876297,537.451111 203.240295,538.295898 202.737000,539.583496 
	C201.333710,543.173401 198.885239,544.909424 195.160843,544.965027 
	C191.164978,545.024780 187.903000,543.012146 187.345139,539.302795 
	C186.617691,534.466003 186.653488,529.348999 187.397354,524.512024 
	C187.930145,521.047546 191.076706,519.079102 194.854050,519.033997 
	C198.560135,518.989746 201.580231,520.459900 202.470200,524.189758 
	C203.266235,527.525818 204.843140,527.421387 207.246658,526.444092 
	C206.553040,519.149109 202.555099,515.263184 195.718460,514.988831 
	C188.633682,514.704529 182.773209,519.209778 182.098846,526.139038 
	C181.667557,530.570496 182.208206,535.096558 182.647964,540.348389 
M289.142487,482.341919 
	C289.142487,484.107086 289.142487,485.872253 289.142487,487.804260 
	C296.387238,487.804260 302.966553,487.804260 309.545837,487.804260 
	C309.833862,487.390167 310.121918,486.976074 310.409943,486.561981 
	C309.324066,485.700195 308.284576,484.174774 307.144073,484.095093 
	C302.897949,483.798401 298.618652,483.976654 293.859070,483.976654 
	C293.859070,473.686523 293.859070,463.964417 293.859070,454.448883 
	C289.894867,453.161926 289.021210,454.685577 289.090088,457.957855 
	C289.254364,465.761658 289.142700,473.571259 289.142487,482.341919 
M375.618256,518.998535 
	C377.881287,518.998535 380.144318,518.998535 382.968811,518.998535 
	C382.968811,529.341675 382.968811,539.054626 382.968811,548.541870 
	C387.045593,549.846802 387.372620,547.841431 387.345825,545.092529 
	C387.261993,536.499695 387.315033,527.905579 387.315033,518.928589 
	C391.258514,518.928589 394.534058,518.928589 397.809631,518.928589 
	C398.101166,518.478455 398.392700,518.028320 398.684235,517.578186 
	C397.711670,516.722595 396.757965,515.151062 395.763550,515.124939 
	C387.982513,514.919983 380.193695,515.011353 372.407257,515.011353 
	C372.106506,515.473328 371.805725,515.935242 371.504974,516.397217 
	C372.566376,517.263428 373.627747,518.129639 375.618256,518.998535 
M408.593170,544.370605 
	C408.825226,549.169983 408.825226,549.169983 412.846558,548.190613 
	C412.846558,537.292053 412.846558,526.401550 412.846558,515.484436 
	C409.633209,514.328918 408.516724,515.372681 408.558838,518.533386 
	C408.669220,526.818298 408.593842,535.105591 408.593170,544.370605 
z"/>
<path fill="#FAFBFB" opacity="1.000000" stroke="none" 
	d="
M288.554077,349.639587 
	C289.042084,345.273590 288.972839,341.153625 290.156647,337.432251 
	C292.639893,329.626099 299.409882,325.259857 307.307617,325.565063 
	C315.329132,325.875031 321.990509,330.524994 323.694946,338.437012 
	C324.823151,343.674377 325.063507,349.424133 324.202911,354.700104 
	C322.552887,364.816162 315.386932,369.971527 305.449341,369.451813 
	C296.597931,368.988861 290.202881,362.653442 288.898163,353.044952 
	C288.763794,352.055145 288.674622,351.059235 288.554077,349.639587 
M301.345245,360.368958 
	C307.427094,363.778046 313.413940,362.527588 314.595551,356.522003 
	C315.741913,350.695587 315.275482,344.387665 314.524506,338.416046 
	C314.099213,335.034363 310.960846,333.054016 307.090454,332.963074 
	C303.047913,332.868103 300.132263,334.650726 298.976593,338.308990 
	C296.661224,345.638306 296.121490,352.989319 301.345245,360.368958 
z"/>
<path fill="#F9F9F9" opacity="1.000000" stroke="none" 
	d="
M233.970581,358.021942 
	C232.137054,355.750732 230.581863,353.377380 228.387161,352.123352 
	C224.813492,350.081421 220.683136,349.030121 217.044128,347.081818 
	C213.081879,344.960480 211.028549,341.314362 211.383774,336.749237 
	C211.757294,331.949127 214.676163,328.909149 218.976517,327.077606 
	C228.923340,322.841217 240.184738,327.025726 242.582092,335.871033 
	C242.791458,336.643524 242.714081,337.493774 242.788376,338.577637 
	C240.014694,338.577637 237.405960,338.577637 234.412140,338.577637 
	C233.332657,333.581696 229.756393,331.747375 224.908310,333.040863 
	C223.155472,333.508514 221.020859,335.292572 220.549408,336.909973 
	C220.198746,338.112946 221.922577,340.444122 223.311050,341.495331 
	C224.968018,342.749725 227.307755,343.059448 229.253616,343.984741 
	C232.532211,345.543854 236.090393,346.812561 238.889343,349.017792 
	C243.948776,353.003998 244.298325,360.491302 240.186874,365.053070 
	C233.537857,372.430328 216.371109,370.509460 211.619034,361.771179 
	C210.710892,360.101227 210.382050,358.116211 209.640717,355.828369 
	C213.008026,355.828369 215.761887,355.828369 218.738403,355.828369 
	C219.180817,359.964691 221.624039,362.316864 225.891083,362.476837 
	C229.255875,362.602905 232.748306,362.703461 233.970581,358.021942 
z"/>
<path fill="#F9F9F9" opacity="1.000000" stroke="none" 
	d="
M272.592529,359.561981 
	C273.764923,355.403809 271.436646,353.660767 268.464691,352.431427 
	C264.934814,350.971344 261.236572,349.872345 257.822845,348.188080 
	C252.298798,345.462616 249.777420,341.138367 250.412994,336.356201 
	C251.089172,331.268646 254.832306,327.554626 260.710510,326.138794 
	C271.708923,323.489746 280.790436,328.729279 281.671539,338.528931 
	C277.871338,338.602112 273.929871,340.671722 271.584564,335.063538 
	C270.269226,331.918304 263.383423,331.736542 260.833252,334.217621 
	C258.418030,336.567444 258.589050,339.126007 261.344360,340.933136 
	C263.391083,342.275513 265.910217,342.876221 268.151337,343.948517 
	C271.426605,345.515656 274.983490,346.766357 277.806305,348.946838 
	C282.759003,352.772644 283.452881,360.059265 279.536987,364.547607 
	C274.498901,370.322174 267.713379,370.124725 261.036896,368.931976 
	C255.049728,367.862335 250.752640,364.394958 249.218246,358.180511 
	C249.064865,357.559296 249.114365,356.887970 249.044907,355.880066 
	C251.930176,355.880066 254.665726,355.880066 257.464264,355.880066 
	C260.145599,363.138367 266.456573,364.903778 272.592529,359.561981 
z"/>
<path fill="#FBFCFC" opacity="1.000000" stroke="none" 
	d="
M484.004669,326.173401 
	C489.291229,326.173401 494.081055,326.173401 499.158295,326.173401 
	C499.158295,328.637787 499.158295,330.704712 499.158295,333.124786 
	C492.825989,333.124786 486.719788,333.124786 480.223450,333.124786 
	C480.223450,336.653198 480.223450,339.843567 480.223450,343.404236 
	C485.408783,343.404236 490.510345,343.404236 496.030518,343.404236 
	C496.030518,345.787506 496.030518,347.823853 496.030518,350.371765 
	C490.842010,350.371765 485.601929,350.371765 480.100220,350.371765 
	C480.100220,354.434265 480.100220,357.994873 480.100220,361.998322 
	C486.515259,361.998322 492.761292,361.998322 499.222351,361.998322 
	C499.222351,364.377380 499.222351,366.319946 499.222351,368.635590 
	C489.874847,368.635590 480.536133,368.635590 471.004547,368.635590 
	C471.004547,354.593811 471.004547,340.683075 471.004547,326.173370 
	C475.294708,326.173370 479.401306,326.173370 484.004669,326.173401 
z"/>
<path fill="#FAFAFA" opacity="1.000000" stroke="none" 
	d="
M181.090454,328.938843 
	C183.526855,325.485840 189.794586,324.964752 190.944580,327.946777 
	C196.134628,341.405243 201.107361,354.947540 206.187714,368.538086 
	C197.983521,369.631531 198.038391,369.606110 194.768066,362.547913 
	C194.312790,361.565308 193.046249,360.377014 192.086029,360.312317 
	C188.273285,360.055573 184.417908,360.020569 180.613083,360.330383 
	C179.587494,360.413849 178.379059,361.840485 177.795303,362.938141 
	C176.869949,364.678070 176.400040,366.660217 175.656708,368.768951 
	C172.778809,368.768951 169.853622,368.768951 166.323318,368.768951 
	C171.276825,355.418274 176.118866,342.367981 181.090454,328.938843 
M188.098083,342.483124 
	C187.602600,341.114868 187.107117,339.746582 186.147690,337.097168 
	C184.229004,343.034760 182.680420,347.827057 181.057526,352.849304 
	C184.642853,352.849304 187.781464,352.849304 191.465958,352.849304 
	C190.357315,349.438080 189.345566,346.325012 188.098083,342.483124 
z"/>
<path fill="#FAFAFA" opacity="1.000000" stroke="none" 
	d="
M419.919128,341.036011 
	C423.403503,350.407349 426.775238,359.407135 430.408417,369.104675 
	C426.909790,368.917114 423.266479,369.771271 421.335358,368.330536 
	C419.302246,366.813721 418.905792,363.103210 417.731628,360.196228 
	C416.137238,360.196228 414.641510,360.266510 413.154266,360.184113 
	C406.540039,359.817505 399.709198,359.053497 400.007416,368.854431 
	C396.540283,368.854431 393.737061,368.854431 390.342499,368.854431 
	C393.362061,360.608978 396.255341,352.682373 399.168579,344.763092 
	C400.889679,340.084503 402.687500,335.433624 404.363647,330.739166 
	C405.340393,328.003510 406.175812,325.978943 410.042480,325.963013 
	C414.016815,325.946686 415.144165,327.777771 416.123291,330.864716 
	C417.176880,334.186523 418.564575,337.402344 419.919128,341.036011 
M412.376465,353.008362 
	C414.296692,353.161255 415.735321,352.936829 414.822144,350.378601 
	C413.398773,346.391174 412.056854,342.374634 410.203705,336.983643 
	C408.227142,343.075714 406.679291,347.846436 405.004364,353.008881 
	C407.510620,353.008881 409.493134,353.008881 412.376465,353.008362 
z"/>
<path fill="#FAFBFB" opacity="1.000000" stroke="none" 
	d="
M350.729767,369.454041 
	C339.127777,369.322327 332.704010,363.850555 331.958344,352.787689 
	C331.596344,347.416718 331.869110,341.701904 333.352417,336.576233 
	C335.742218,328.318146 343.491791,324.578125 352.918793,325.879303 
	C360.762970,326.962006 365.471344,332.104431 366.111359,340.547455 
	C363.507233,340.547455 360.913818,340.547455 359.233429,340.547455 
	C356.876556,337.836182 355.327209,334.678864 352.833588,333.470825 
	C347.602722,330.936707 342.221924,334.034332 341.209625,339.920593 
	C340.513367,343.969116 340.496765,348.204163 340.731323,352.324249 
	C340.981689,356.722229 341.872772,361.131866 347.373779,362.102325 
	C353.012115,363.097015 355.399078,361.506500 358.245636,354.806885 
	C359.743713,354.806885 361.387939,354.778870 363.030609,354.817474 
	C364.002289,354.840332 364.971527,354.968536 365.929352,355.048309 
	C365.708008,363.535461 360.857422,368.190094 350.729767,369.454041 
z"/>
<path fill="#FBFBFB" opacity="1.000000" stroke="none" 
	d="
M429.182800,330.955719 
	C429.257477,329.221832 429.340027,327.938873 429.437408,326.425232 
	C440.957550,326.425232 452.190613,326.425232 463.715820,326.425232 
	C463.715820,328.606049 463.715820,330.658478 463.715820,333.049683 
	C459.681091,333.049683 455.744293,333.049683 451.257690,333.049683 
	C451.257690,345.056427 451.257690,356.753143 451.257690,368.723877 
	C447.988190,368.723877 445.260803,368.723877 442.163879,368.723877 
	C442.163879,357.120453 442.163879,345.535675 442.163879,333.191467 
	C438.907623,333.191467 435.979553,333.373566 433.092010,333.110748 
	C431.750946,332.988678 430.488647,332.001587 429.182800,330.955719 
z"/>
<path fill="#2A2E30" opacity="1.000000" stroke="none" 
	d="
M655.442139,373.013672 
	C655.883301,381.029694 655.930237,389.044800 655.902039,397.522278 
	C649.280151,399.522888 642.733337,401.061157 635.779541,402.695068 
	C635.779541,395.123444 635.663696,387.688660 635.913025,380.266144 
	C635.947754,379.234833 637.618103,377.722412 638.813171,377.358398 
	C644.169006,375.726898 649.626831,374.430237 655.442139,373.013672 
z"/>
<path fill="#2A2E30" opacity="1.000000" stroke="none" 
	d="
M655.442749,330.012939 
	C655.883057,338.029114 655.924805,346.043945 655.889893,354.520752 
	C651.158813,356.052216 646.472351,357.000732 641.858643,358.223938 
	C636.877014,359.544708 635.412109,358.795135 635.108459,353.674774 
	C634.853882,349.381744 634.966919,345.055084 635.137634,340.752075 
	C635.299561,336.670929 637.267639,334.086487 641.564087,333.266388 
	C646.099304,332.400696 650.554199,331.114227 655.442749,330.012939 
z"/>
<path fill="#2A2E30" opacity="1.000000" stroke="none" 
	d="
M655.443726,287.007996 
	C655.894836,294.695892 655.939636,302.378143 655.910461,310.522980 
	C650.746582,312.427643 645.597168,313.692657 640.588135,315.375305 
	C637.342102,316.465698 635.517578,315.352203 635.398499,312.315033 
	C635.172791,306.555725 635.171082,300.750732 635.706360,295.023621 
	C635.846130,293.527588 638.075684,291.552216 639.743591,291.000183 
	C644.735779,289.347931 649.925110,288.291473 655.443726,287.007996 
z"/>
<path fill="#2A2E30" opacity="1.000000" stroke="none" 
	d="
M13.574492,397.989807 
	C13.122876,389.969482 13.069969,381.954803 13.090803,373.477509 
	C18.927174,374.461639 24.737612,375.752045 30.411839,377.487762 
	C31.538153,377.832275 32.811954,379.853455 32.871719,381.154114 
	C33.137924,386.947784 32.951290,392.760925 33.002422,398.566345 
	C33.033043,402.043060 31.094156,402.308105 28.400938,401.619415 
	C23.596918,400.390991 18.782991,399.201294 13.574492,397.989807 
z"/>
<path fill="#2A2E30" opacity="1.000000" stroke="none" 
	d="
M13.528698,311.056702 
	C13.114621,303.303741 13.065046,295.622223 13.082955,287.477295 
	C18.927795,288.348602 24.724308,289.609314 30.463013,291.093506 
	C31.382875,291.331421 32.703678,292.553314 32.722389,293.346649 
	C32.896137,300.712402 32.825111,308.083893 32.825111,316.302521 
	C25.919790,314.415222 19.906496,312.771698 13.528698,311.056702 
z"/>
<path fill="#2A2E30" opacity="1.000000" stroke="none" 
	d="
M13.526932,354.058838 
	C13.114435,346.303650 13.065342,338.622009 13.087374,330.477417 
	C18.939518,331.382812 24.777086,332.563599 30.454525,334.275482 
	C31.610016,334.623871 32.806034,336.938995 32.879395,338.402771 
	C33.161198,344.025879 32.938316,349.672241 33.015766,355.308380 
	C33.060722,358.579865 31.688587,359.370972 28.667471,358.423553 
	C23.774410,356.889038 18.819269,355.552460 13.526932,354.058838 
z"/>
<path fill="#FDFEFE" opacity="1.000000" stroke="none" 
	d="
M379.919067,369.000610 
	C377.975128,369.001129 376.516296,369.001129 374.812042,369.001129 
	C374.812042,354.693420 374.812042,340.810364 374.812042,326.553375 
	C377.412933,326.553375 379.954010,326.553375 383.183685,326.553375 
	C383.183685,332.933777 383.183838,339.345428 383.183655,345.757080 
	C383.183472,352.401398 383.141479,359.046112 383.207428,365.689789 
	C383.227600,367.723633 383.156311,369.429504 379.919067,369.000610 
z"/>
<path fill="#3A4044" opacity="1.000000" stroke="none" 
	d="
M133.983917,131.939331 
	C135.066879,127.149422 138.631836,128.560135 141.302643,128.672989 
	C142.721329,128.732971 144.898956,129.810104 145.347717,130.966187 
	C151.048401,145.652298 156.501144,160.434723 161.989624,175.202805 
	C162.149857,175.633911 162.009888,176.176590 162.009888,176.664322 
	C152.684296,177.666504 152.684296,177.666504 148.502197,167.006836 
	C145.835129,167.006836 143.026474,167.006836 140.217834,167.006836 
	C137.398712,167.006836 134.579575,167.006836 131.386017,167.006836 
	C130.205917,170.239319 129.032211,173.454285 127.802589,176.822418 
	C124.503113,176.822418 121.232376,176.822418 117.307533,176.822418 
	C122.915443,161.775238 128.404251,147.047638 133.983917,131.939331 
M138.461075,145.155304 
	C136.985962,149.648254 135.510834,154.141220 133.999695,158.743912 
	C138.193817,158.743912 141.905014,158.743912 145.950027,158.743912 
	C144.033112,153.029282 142.234161,147.666336 140.051498,141.159531 
	C139.294327,143.056305 139.013870,143.758835 138.461075,145.155304 
z"/>
<path fill="#3C4246" opacity="1.000000" stroke="none" 
	d="
M515.707886,172.177597 
	C511.369690,164.973816 511.195465,157.608231 513.507080,150.212097 
	C516.461304,140.759705 523.775452,138.303207 534.927429,142.879059 
	C534.927429,137.338593 534.927429,131.913544 534.927429,126.149139 
	C538.255066,126.149139 541.284058,126.149139 544.575562,126.149139 
	C544.575562,143.016617 544.575562,159.743774 544.575562,176.907211 
	C541.308350,176.185989 537.457520,179.255280 535.275024,174.502106 
	C525.863770,179.283432 521.889648,178.874695 515.707886,172.177597 
M534.743469,166.605103 
	C534.828430,162.631714 534.778809,158.649536 535.037842,154.687515 
	C535.274902,151.061829 533.622070,148.921936 530.272522,148.242203 
	C526.686829,147.514496 523.799988,149.053772 522.968689,152.578293 
	C522.187256,155.891739 521.794556,159.488113 522.188049,162.847885 
	C523.025757,170.000748 528.472839,171.857071 534.743469,166.605103 
z"/>
<path fill="#3B4145" opacity="1.000000" stroke="none" 
	d="
M407.156189,133.916779 
	C408.897217,137.561707 410.414734,140.910797 412.197937,144.846161 
	C407.967743,144.846161 405.012299,144.846161 403.156525,144.846161 
	C400.668640,141.753616 399.175079,138.437164 396.626099,137.022720 
	C390.739441,133.756195 384.069366,137.000931 382.983154,143.755066 
	C382.099335,149.250412 382.069000,155.025131 382.642548,160.574417 
	C383.268066,166.626419 386.504944,169.291168 391.526581,169.526810 
	C397.089752,169.787857 399.696960,167.688721 401.707336,161.104919 
	C404.693756,161.104919 407.775543,161.104919 410.858276,161.104919 
	C411.165619,173.118637 400.358429,178.138168 390.935120,177.720779 
	C381.481903,177.302078 374.803802,171.993774 373.049255,162.608215 
	C371.970978,156.840073 371.594696,150.573532 372.635132,144.845352 
	C375.749847,127.696747 393.836090,121.996048 407.156189,133.916779 
z"/>
<path fill="#3A4044" opacity="1.000000" stroke="none" 
	d="
M213.178589,128.111877 
	C213.186188,133.251358 213.186188,137.902176 213.186188,142.501801 
	C213.631485,142.671539 214.061722,142.972946 214.205780,142.870804 
	C223.003891,136.632065 234.799240,141.203842 235.940079,154.926208 
	C236.226440,158.370605 236.227615,161.961334 235.586487,165.337982 
	C233.372757,176.997620 223.470840,181.016098 214.955246,175.385071 
	C210.687408,176.219925 207.575226,176.828735 204.049713,177.518387 
	C204.049713,159.891602 204.049713,143.178467 204.049713,125.096184 
	C207.325836,126.003830 210.248428,126.813530 213.178589,128.111877 
M213.958237,150.815170 
	C213.692139,154.892532 213.465714,158.972992 213.148758,163.046402 
	C212.832977,167.104523 214.784073,169.362793 218.673996,169.842926 
	C222.810059,170.353394 225.444977,168.351151 226.021057,164.269089 
	C226.432358,161.354691 226.620972,158.315659 226.278687,155.406387 
	C225.412384,148.043182 220.729950,146.059265 213.958237,150.815170 
z"/>
<path fill="#3A4044" opacity="1.000000" stroke="none" 
	d="
M295.493835,177.547546 
	C292.835785,176.550430 290.563354,175.635056 288.290924,174.719681 
	C288.411377,175.060013 288.531830,175.400345 288.652313,175.740662 
	C285.642090,176.309067 282.631866,176.877457 279.148926,177.535126 
	C279.148926,159.964142 279.148926,143.116226 279.148926,126.038971 
	C282.048126,126.038971 284.802948,126.038971 288.084290,126.038971 
	C288.084290,131.638123 288.084290,137.178345 288.084290,143.266373 
	C290.163879,142.304047 291.545959,141.325821 293.057617,141.044861 
	C295.289276,140.630112 297.697968,140.255646 299.882629,140.662399 
	C308.231842,142.216797 312.149902,150.199265 311.011292,162.759705 
	C310.121979,172.569702 305.276917,177.330780 295.493835,177.547546 
M288.483612,151.510773 
	C288.375885,155.470444 288.337341,159.433548 288.140778,163.388809 
	C287.948364,167.261002 289.914917,169.284317 293.519775,169.824615 
	C297.381226,170.403351 300.187653,168.716156 300.878235,164.906128 
	C301.458282,161.706207 301.770203,158.227966 301.105469,155.106201 
	C300.590698,152.688599 298.773224,149.345734 296.824615,148.754333 
	C294.613861,148.083359 291.611908,150.019211 288.483612,151.510773 
z"/>
<path fill="#3D4347" opacity="1.000000" stroke="none" 
	d="
M240.857361,163.124084 
	C245.069794,153.925842 253.415131,155.441147 262.265350,154.640671 
	C260.697632,151.975998 259.841125,148.665726 258.232422,148.247238 
	C256.140656,147.703094 253.472672,149.536423 251.013474,150.201538 
	C247.896973,151.044449 244.741104,151.741730 240.220474,152.836395 
	C241.557968,149.564224 241.996414,147.610596 243.048401,146.078125 
	C246.634247,140.854523 255.269928,138.782898 262.580719,141.170197 
	C268.202271,143.005875 270.924774,147.175949 270.995331,154.368683 
	C271.068115,161.786423 271.011505,169.205429 271.011505,177.287857 
	C268.114990,176.898376 264.519135,176.414871 259.538300,175.745132 
	C255.735550,178.476410 250.188324,178.951965 244.780991,175.310913 
	C240.624512,172.512131 239.309296,168.384277 240.857361,163.124084 
M255.406021,170.171707 
	C261.426270,168.627747 262.269165,166.990417 260.254761,160.360138 
	C258.342834,160.555969 256.042786,160.188614 254.508087,161.104187 
	C252.667191,162.202438 250.804337,164.223892 250.307144,166.188736 
	C250.076218,167.101288 253.049240,168.824615 255.406021,170.171707 
z"/>
<path fill="#3D4347" opacity="1.000000" stroke="none" 
	d="
M333.635925,176.690857 
	C331.478577,177.172272 329.672516,177.785248 327.892151,177.718018 
	C321.497620,177.476471 316.677734,173.177246 316.202728,167.567001 
	C315.726501,161.941818 319.150116,157.391968 325.573639,155.912872 
	C329.242737,155.068039 333.089600,154.995193 338.201294,154.424637 
	C336.699768,151.943161 335.806427,148.645325 334.173950,148.226181 
	C332.095154,147.692429 329.446533,149.593292 326.992126,150.253479 
	C323.873413,151.092331 320.703125,151.739456 316.198761,152.783691 
	C317.556366,149.525833 318.012909,147.566025 319.079071,146.029099 
	C322.682953,140.834137 331.368195,138.781326 338.632294,141.185074 
	C344.233337,143.038513 346.927338,147.206070 346.996368,154.418793 
	C347.066010,161.696396 347.011658,168.975174 347.011658,177.422043 
	C344.397858,176.778152 341.140961,175.780472 337.809479,175.260422 
	C336.633057,175.076767 335.274475,176.059937 333.635925,176.690857 
M328.114716,169.762054 
	C336.031067,170.802612 338.069672,168.659744 336.350128,159.501907 
	C332.980865,160.862061 329.615570,161.815216 326.812439,163.634537 
	C326.103027,164.094955 327.186493,167.317719 328.114716,169.762054 
z"/>
<path fill="#3B4145" opacity="1.000000" stroke="none" 
	d="
M505.433899,141.570648 
	C505.756134,152.903000 505.789886,163.871414 505.810211,174.839859 
	C505.811096,175.321304 505.689240,175.802963 505.562988,176.743042 
	C502.205353,176.343277 498.339508,179.148590 495.935089,174.847565 
	C493.213898,175.782028 490.522400,177.140549 487.686340,177.593277 
	C481.006805,178.659546 475.370209,174.741913 474.974060,168.100769 
	C474.442902,159.195908 474.842529,150.235550 474.842529,141.147644 
	C477.826019,141.147644 480.616821,141.147644 484.011200,141.147644 
	C484.011200,148.623016 483.913544,156.043777 484.044800,163.460510 
	C484.135132,168.564194 486.669312,170.664154 491.261963,169.686020 
	C494.362305,169.025726 496.126587,167.355316 496.044434,163.810547 
	C495.872040,156.369980 495.992096,148.922668 495.992096,141.206711 
	C499.279968,141.206711 502.211426,141.206711 505.433899,141.570648 
z"/>
<path fill="#3C4145" opacity="1.000000" stroke="none" 
	d="
M450.196411,140.207260 
	C457.581116,140.357590 463.490204,142.633698 466.355164,149.455490 
	C469.405487,156.718658 469.474854,164.160950 465.018433,170.920868 
	C458.866211,180.253159 443.411407,179.976852 437.254150,170.647766 
	C429.239624,158.504654 435.626007,142.998825 450.196411,140.207260 
M447.069305,168.554535 
	C452.343262,170.840683 456.575287,169.890640 457.583923,165.282486 
	C458.470062,161.234039 458.418671,156.661499 457.424164,152.657547 
	C456.941284,150.713577 453.339661,148.335831 451.175140,148.360535 
	C449.043427,148.384857 445.919037,150.767365 445.034027,152.873276 
	C442.917053,157.910507 442.975800,163.273987 447.069305,168.554535 
z"/>
<path fill="#3C4246" opacity="1.000000" stroke="none" 
	d="
M325.482178,97.724403 
	C324.266998,98.330185 323.390533,98.736801 321.048309,99.823380 
	C325.679504,89.427544 324.091309,81.609314 312.671051,76.471718 
	C316.232178,75.878181 317.976624,75.205978 319.633423,75.377998 
	C326.428345,76.083542 330.027649,72.764305 331.726471,66.547058 
	C332.135498,65.050079 333.092926,63.702942 334.671112,60.533970 
	C336.568359,72.713921 342.779755,77.590355 354.367737,75.957840 
	C344.931091,81.746384 341.499390,88.971054 346.593872,99.353737 
	C339.355988,95.846275 333.009521,90.117683 325.482178,97.724403 
z"/>
<path fill="#42474B" opacity="1.000000" stroke="none" 
	d="
M427.851929,134.068573 
	C427.851929,148.483963 427.851929,162.410004 427.851929,176.679352 
	C424.660156,176.679352 421.753937,176.679352 418.495544,176.679352 
	C418.495544,159.981293 418.495544,143.155472 418.495544,126.055992 
	C421.520752,126.055992 424.418518,126.055992 427.851929,126.055992 
	C427.851929,128.687866 427.851929,131.133545 427.851929,134.068573 
z"/>
<path fill="#42474B" opacity="1.000000" stroke="none" 
	d="
M169.187958,125.809616 
	C171.805969,125.790733 173.955902,125.790733 176.476807,125.790733 
	C176.476807,142.875687 176.476807,159.693710 176.476807,176.769592 
	C173.500198,176.769592 170.597015,176.769592 167.148071,176.769592 
	C167.148071,167.381287 167.148041,158.127319 167.148087,148.873352 
	C167.148117,142.560303 167.056946,136.244919 167.219711,129.936066 
	C167.255341,128.554886 168.195999,127.197067 169.187958,125.809616 
z"/>
<path fill="#A0A2A4" opacity="1.000000" stroke="none" 
	d="
M292.979065,230.642578 
	C289.321381,230.268875 286.040680,230.100250 282.197205,229.902725 
	C282.197205,234.949600 282.197205,239.518692 282.197205,244.087769 
	C281.761627,244.486465 281.326080,244.885162 280.890503,245.283859 
	C279.642731,244.357300 277.334625,243.457809 277.310181,242.500015 
	C277.048218,232.236084 277.147186,221.962906 277.147186,211.150085 
	C282.728546,211.150085 287.959564,210.431793 292.844299,211.421921 
	C295.732758,212.007401 298.955261,214.803513 300.447510,217.484879 
	C302.517609,221.204529 300.501678,224.870163 298.347015,226.494507 
	C299.763672,232.893173 301.005524,238.502167 302.272827,244.226242 
	C297.091095,246.320206 296.847565,243.086945 296.171509,239.811722 
	C295.541595,236.760010 294.318207,233.830795 292.979065,230.642578 
M284.687439,215.027588 
	C278.747498,217.426285 283.576660,222.019150 281.661774,225.739639 
	C285.657623,225.739639 288.935852,226.351898 291.791718,225.517899 
	C293.604309,224.988571 295.584015,222.505829 296.070892,220.546707 
	C296.826202,217.507797 294.542358,215.623917 291.559723,215.181091 
	C289.608673,214.891403 287.590210,215.055374 284.687439,215.027588 
z"/>
<path fill="#A0A2A4" opacity="1.000000" stroke="none" 
	d="
M457.618408,230.531403 
	C455.565460,243.206375 448.364471,247.139648 432.467194,244.422302 
	C432.467194,233.605118 432.467194,222.724091 432.467194,211.853180 
	C449.189148,208.429398 458.636566,213.702759 457.618408,230.531403 
M448.516174,239.274109 
	C453.003693,234.801056 454.470459,226.107895 451.691315,220.455948 
	C449.355591,215.705826 445.075165,214.230743 437.330078,215.625336 
	C437.330078,223.920471 437.330078,232.253571 437.330078,241.457550 
	C441.164429,240.825638 444.513336,240.273712 448.516174,239.274109 
z"/>
<path fill="#9FA2A4" opacity="1.000000" stroke="none" 
	d="
M247.123260,226.004730 
	C247.123367,220.890656 247.123367,216.275421 247.123367,211.017532 
	C254.257324,211.017532 260.848328,210.952454 267.434174,211.106949 
	C268.185669,211.124573 268.908295,212.372742 269.644287,213.050354 
	C268.708649,213.701462 267.794312,214.876160 266.833771,214.915253 
	C262.068298,215.109222 257.290588,215.003693 252.242767,215.003693 
	C252.242767,218.847931 252.242767,222.081299 252.242767,225.990433 
	C256.374390,225.990433 260.318298,225.845993 264.239441,226.081375 
	C265.367249,226.149078 266.429291,227.312164 267.521484,227.973038 
	C266.447266,228.651688 265.406067,229.843979 264.292816,229.915573 
	C260.496918,230.159637 256.675690,230.008987 252.408859,230.008987 
	C252.408859,233.642761 252.408859,236.986954 252.408859,240.994461 
	C257.246307,240.994461 262.020966,240.867081 266.778748,241.093521 
	C267.829193,241.143509 268.820038,242.446396 269.838348,243.172363 
	C268.871368,243.782944 267.917236,244.897247 266.935364,244.922241 
	C260.633606,245.082596 254.325821,245.004120 247.123169,245.004120 
	C247.123169,238.648117 247.123169,232.575851 247.123260,226.004730 
z"/>
<path fill="#9FA2A4" opacity="1.000000" stroke="none" 
	d="
M424.232727,244.558136 
	C416.903961,244.809601 409.937500,244.809601 402.548340,244.809601 
	C402.548340,233.640747 402.548340,222.627182 402.548340,211.022491 
	C409.332489,211.022491 415.936920,210.957153 422.535919,211.116058 
	C423.254669,211.133347 423.942261,212.444107 424.644287,213.154922 
	C423.839111,213.767502 423.051544,214.881058 422.225861,214.910049 
	C417.425568,215.078796 412.616364,214.992615 407.382446,214.992615 
	C407.382446,218.698532 407.382446,222.045975 407.382446,225.987244 
	C410.983093,225.987244 414.452423,225.769852 417.873138,226.083267 
	C419.471069,226.229660 420.974976,227.402878 422.521484,228.110703 
	C420.901154,228.744736 419.316345,229.780792 417.653015,229.927612 
	C414.375977,230.216873 411.055389,230.012817 407.354187,230.012817 
	C407.354187,233.631378 407.354187,236.869019 407.354187,240.991257 
	C411.955658,240.991257 416.704254,241.025269 421.452026,240.976730 
	C423.779877,240.952942 425.565125,241.288818 424.232727,244.558136 
z"/>
<path fill="#42474B" opacity="1.000000" stroke="none" 
	d="
M194.851776,172.779083 
	C195.185181,175.830948 194.562866,177.423660 191.450989,177.065338 
	C189.527634,176.843887 187.558014,177.024292 185.381989,177.024292 
	C185.381989,164.947983 185.381989,153.360184 185.381989,141.373016 
	C188.368835,141.373016 191.379181,141.373016 194.851898,141.373016 
	C194.851898,151.754913 194.851898,162.029449 194.851776,172.779083 
z"/>
<path fill="#9FA2A4" opacity="1.000000" stroke="none" 
	d="
M231.175476,239.333832 
	C232.227646,237.812393 232.827545,236.415558 233.760330,235.296082 
	C234.636368,234.244720 235.864120,233.486420 237.581436,232.066422 
	C238.085312,238.699417 235.684189,242.409714 230.838715,244.167191 
	C225.100479,246.248520 218.986542,244.587997 215.583633,240.023972 
	C211.724472,234.847992 211.606766,221.459747 215.427292,216.203735 
	C218.589523,211.853378 223.048309,210.454330 228.174744,211.073761 
	C232.640884,211.613403 236.037933,213.985916 237.552948,218.255051 
	C238.009094,219.540405 237.046982,221.329086 236.734558,222.887192 
	C235.669952,221.978287 234.143005,221.275955 233.627289,220.121796 
	C232.069138,216.634735 229.531601,214.965500 225.826447,215.043564 
	C221.833817,215.127686 218.973572,217.285004 218.216446,221.026764 
	C217.471588,224.707993 217.208542,228.653824 217.652985,232.373749 
	C218.573364,240.077240 223.563919,242.606064 231.175476,239.333832 
z"/>
<path fill="#A0A2A4" opacity="1.000000" stroke="none" 
	d="
M368.020569,230.016815 
	C365.585510,230.016830 363.624878,230.016830 361.115845,230.016830 
	C361.115845,235.050812 361.115845,239.631027 361.115845,246.078430 
	C358.694397,244.503510 356.348328,243.706573 356.327637,242.853241 
	C356.074829,232.428070 356.163269,221.994598 356.163269,210.994476 
	C363.199188,210.994476 369.644836,210.913116 376.083557,211.087051 
	C376.991943,211.111588 377.866638,212.382248 378.756927,213.076141 
	C377.815887,213.719772 376.895660,214.880768 375.930298,214.919586 
	C371.154022,215.111603 366.365845,215.007050 361.275696,215.007050 
	C361.275696,218.797287 361.275696,222.032837 361.275696,225.983368 
	C364.502747,225.983368 367.625519,225.765610 370.697845,226.065109 
	C372.538727,226.244568 374.300751,227.232651 376.098236,227.857300 
	C374.229462,228.577103 372.378571,229.350281 370.481445,229.985443 
	C369.882874,230.185837 369.160583,230.016769 368.020569,230.016815 
z"/>
<path fill="#9B9EA0" opacity="1.000000" stroke="none" 
	d="
M321.912720,244.803833 
	C320.599091,243.523438 319.015503,242.161011 318.974976,240.754166 
	C318.736603,232.472870 318.857697,224.181229 318.857697,214.986893 
	C315.944550,214.986893 313.362549,215.160980 310.825256,214.900101 
	C309.828491,214.797623 308.931793,213.722092 307.989502,213.089691 
	C308.872681,212.399628 309.742279,211.132202 310.641113,211.111099 
	C317.614868,210.947433 324.596191,210.948273 331.569458,211.124542 
	C332.424805,211.146149 333.246338,212.505096 334.083557,213.244293 
	C333.250336,213.820694 332.455658,214.812607 331.576538,214.894135 
	C329.118530,215.122086 326.625580,214.973465 323.239227,214.973465 
	C323.239227,219.700287 323.352020,224.106598 323.210449,228.504730 
	C323.036530,233.907166 322.650177,239.302750 321.912720,244.803833 
z"/>
<path fill="#9B9EA0" opacity="1.000000" stroke="none" 
	d="
M390.560150,244.343811 
	C387.596710,245.474960 386.673004,244.299316 386.688599,241.699890 
	C386.743408,232.563690 386.640533,223.425720 386.804016,214.292114 
	C386.823303,213.215271 388.121796,212.161316 388.827271,211.096725 
	C389.569733,212.099731 390.947021,213.096893 390.956329,214.106644 
	C391.048065,224.066727 390.912720,234.028870 390.560150,244.343811 
z"/>
<path fill="#9B9EA0" opacity="1.000000" stroke="none" 
	d="
M341.698486,227.001801 
	C341.700836,222.522278 341.525299,218.528564 341.813477,214.568604 
	C341.901215,213.363449 343.267120,212.251328 344.047607,211.096588 
	C344.717346,212.170807 345.949829,213.235397 345.968323,214.320709 
	C346.123810,223.440598 346.123871,232.565414 345.967987,241.685303 
	C345.949463,242.768646 344.713318,243.831192 344.041595,244.903381 
	C343.263092,243.746658 341.881439,242.624481 341.812866,241.427078 
	C341.547668,236.797928 341.701233,232.144791 341.698486,227.001801 
z"/>
<path fill="#3C4145" opacity="1.000000" stroke="none" 
	d="
M186.378937,135.377441 
	C183.650070,129.753830 185.422729,126.146523 190.437805,127.013367 
	C192.282715,127.332260 194.723618,129.607162 195.166840,131.413361 
	C195.902283,134.410431 193.667160,136.332443 190.492325,136.400711 
	C189.220810,136.428040 187.937683,135.913879 186.378937,135.377441 
z"/>
<path fill="#EFFCFB" opacity="1.000000" stroke="none" 
	d="
M259.959961,543.811035 
	C259.881958,545.748047 259.803955,547.209351 259.720917,548.765625 
	C258.153107,548.765625 256.897583,548.765625 255.389954,548.765625 
	C255.389954,537.583862 255.389954,526.646301 255.389954,515.537048 
	C259.138977,514.165833 261.422607,514.878052 262.871399,519.031372 
	C265.475067,526.495483 268.612335,533.773499 272.075287,542.514038 
	C275.448425,533.978088 278.468018,526.867981 281.043274,519.600525 
	C282.373138,515.847595 284.154480,513.841797 288.627777,515.413696 
	C288.627777,526.299011 288.627777,537.368835 288.627777,548.777954 
	C287.311676,548.838806 286.056885,548.896851 284.372864,548.974670 
	C284.372864,541.028320 284.372864,533.321167 284.372864,525.613953 
	C284.012299,525.523254 283.651733,525.432495 283.291168,525.341797 
	C280.701355,531.709106 278.192169,538.111267 275.467499,544.420349 
	C274.745911,546.091248 273.361053,547.475708 272.280701,548.991699 
	C271.053223,547.447998 269.438599,546.075317 268.667847,544.329956 
	C265.895538,538.052002 263.408081,531.648315 259.960022,525.577698 
	C259.960022,531.496887 259.960022,537.416138 259.959961,543.811035 
z"/>
<path fill="#EFFCFB" opacity="1.000000" stroke="none" 
	d="
M436.874207,526.079895 
	C439.762695,530.714111 442.472473,535.033203 445.182281,539.352234 
	C445.544037,539.287170 445.905823,539.222107 446.267578,539.157043 
	C446.267578,532.309021 446.392395,525.457703 446.213318,518.614380 
	C446.127838,515.348083 447.384430,514.383545 450.702698,515.288574 
	C450.702698,526.226196 450.702698,537.293884 450.702698,550.098389 
	C448.163086,548.440491 445.729279,547.646545 444.594086,545.972107 
	C439.849548,538.973999 435.494904,531.711548 430.142761,523.184509 
	C430.142761,532.607300 430.142761,540.575195 430.142761,548.765869 
	C428.243256,548.765869 426.988892,548.765869 425.435181,548.765869 
	C425.435181,537.587708 425.435181,526.517761 425.435181,515.074646 
	C433.402313,514.452515 432.906677,522.415894 436.874207,526.079895 
z"/>
<path fill="#F4FDFC" opacity="1.000000" stroke="none" 
	d="
M418.145142,476.917969 
	C415.386993,484.921478 411.191895,487.950226 403.210297,488.017761 
	C400.073364,488.044312 396.936005,488.022064 393.148651,488.022064 
	C393.148651,482.196289 393.148651,476.755157 393.148651,471.314026 
	C393.148651,465.826569 393.148651,460.339111 393.148651,453.757568 
	C398.603363,454.110077 403.932373,453.811432 408.937286,454.944397 
	C414.895172,456.292999 417.969635,460.968964 418.388123,467.045074 
	C418.604279,470.183319 418.288116,473.358276 418.145142,476.917969 
M397.942719,470.503784 
	C397.942719,474.926483 397.942719,479.349152 397.942719,483.764740 
	C403.885651,484.207123 409.467133,484.843018 412.255066,479.154663 
	C415.000702,473.552582 415.194672,467.419647 411.726166,461.996124 
	C408.524475,456.989807 403.291107,457.815521 397.942688,458.319641 
	C397.942688,462.252472 397.942688,465.883423 397.942719,470.503784 
z"/>
<path fill="#F6FDFD" opacity="1.000000" stroke="none" 
	d="
M476.083557,519.021973 
	C469.734589,520.542603 467.803436,522.761108 467.552124,528.599304 
	C467.444794,531.092834 467.373230,533.611328 467.593475,536.091125 
	C468.231812,543.279053 475.619324,547.570679 481.852142,543.945007 
	C483.642334,542.903625 484.084198,539.544312 485.229034,537.064148 
	C477.266876,535.030640 477.266876,535.030640 477.440674,532.191956 
	C481.042786,532.191956 484.662659,532.191956 488.991028,532.191956 
	C488.991028,535.792603 489.109558,539.387085 488.914551,542.964417 
	C488.860229,543.960876 488.109894,545.226990 487.284393,545.823608 
	C482.160919,549.526367 476.498779,550.156494 470.727417,547.732849 
	C465.458313,545.520142 462.843445,541.287659 462.865051,535.526733 
	C462.876892,532.363525 462.697235,529.172852 463.043823,526.043274 
	C463.752716,519.642029 469.057831,515.175354 475.777679,514.984741 
	C483.127075,514.776184 487.178528,517.804199 488.997101,526.324280 
	C486.637451,524.947327 485.218658,524.119690 483.800201,523.291626 
	C481.361694,521.868042 478.923340,520.444153 476.083557,519.021973 
z"/>
<path fill="#F5FDFD" opacity="1.000000" stroke="none" 
	d="
M318.498596,479.188538 
	C318.219208,474.196167 317.559479,469.512726 318.076874,464.963074 
	C318.865173,458.030670 324.732330,453.702209 331.814758,453.983917 
	C338.743500,454.259521 344.282471,459.235260 344.930054,465.962982 
	C345.167877,468.433563 345.035095,470.943420 345.012360,473.434814 
	C344.942505,481.095642 341.215759,486.072144 334.381378,487.681915 
	C327.594727,489.280457 322.172302,486.480804 318.498596,479.188538 
M323.209167,463.110931 
	C323.014191,467.711212 322.295898,472.366180 322.769379,476.896606 
	C323.256470,481.557922 327.069336,484.121460 331.556824,483.985718 
	C336.135010,483.847260 339.642242,480.681732 340.145416,475.911072 
	C340.422974,473.279602 340.269745,470.601898 340.296570,467.944885 
	C340.341156,463.527557 338.627930,460.049805 334.337433,458.559387 
	C329.897430,457.016968 326.178894,458.343384 323.209167,463.110931 
z"/>
<path fill="#F5FDFD" opacity="1.000000" stroke="none" 
	d="
M244.014740,535.641418 
	C242.708801,544.682190 237.318390,549.417480 229.297989,549.013733 
	C221.926849,548.642578 217.091553,543.387451 216.657974,535.079773 
	C216.520096,532.438110 216.554626,529.755798 216.846130,527.129395 
	C217.693604,519.493835 223.119766,514.784180 230.605606,514.982910 
	C238.154434,515.183289 243.700790,520.636414 243.999802,528.223999 
	C244.091248,530.544128 244.016510,532.870850 244.014740,535.641418 
M239.302689,530.616577 
	C239.284790,529.621887 239.345032,528.618530 239.235916,527.633972 
	C238.662842,522.462708 235.379501,519.195740 230.632736,519.015808 
	C225.811157,518.833069 222.091858,521.766479 221.534042,526.976074 
	C221.133636,530.715515 221.191498,534.632263 221.855133,538.324341 
	C222.654541,542.771729 225.920105,545.001892 230.486359,544.971558 
	C234.877136,544.942383 238.367523,541.938843 239.059525,537.492676 
	C239.363007,535.542786 239.235077,533.525757 239.302689,530.616577 
z"/>
<path fill="#FBFEFE" opacity="1.000000" stroke="none" 
	d="
M360.083405,464.028870 
	C360.086151,468.513336 359.963287,472.511353 360.123505,476.497986 
	C360.323090,481.464020 363.157898,483.995972 368.166687,483.989532 
	C373.200348,483.983063 376.254364,481.481354 376.423737,476.656128 
	C376.645416,470.341492 376.569519,464.012512 376.468536,457.692169 
	C376.421082,454.720612 377.185089,453.099213 380.978180,454.482544 
	C380.978180,462.481354 381.326660,470.774994 380.859161,479.022400 
	C380.531799,484.797150 374.687775,488.287170 367.338745,488.004669 
	C360.535095,487.743134 355.903564,484.125214 355.634186,478.173370 
	C355.311035,471.033691 355.392456,463.864624 355.650085,456.720978 
	C355.691589,455.569946 357.561279,454.484863 358.585907,453.369263 
	C359.085083,453.643066 359.584229,453.916870 360.083405,454.190674 
	C360.083405,457.306244 360.083405,460.421783 360.083405,464.028870 
z"/>
<path fill="#FBFEFE" opacity="1.000000" stroke="none" 
	d="
M362.081421,518.281372 
	C362.081940,525.075256 362.160278,531.400513 362.059174,537.722839 
	C361.943542,544.951843 357.216125,549.014099 349.145538,549.006042 
	C341.329193,548.998291 336.704956,545.084961 336.547424,537.982422 
	C336.381805,530.517334 336.510315,523.045654 336.510315,515.294067 
	C338.118896,515.216919 339.349518,515.157837 340.598602,515.097900 
	C340.795166,515.819824 341.031311,516.287537 341.033844,516.756531 
	C341.069427,523.412903 341.008972,530.070374 341.105011,536.725647 
	C341.184113,542.208740 343.786957,544.878540 348.895996,544.989258 
	C354.364441,545.107849 357.351624,542.437988 357.459900,536.926331 
	C357.599976,529.795044 357.494049,522.658936 357.494049,515.524841 
	C357.993378,515.176758 358.492706,514.828613 358.992035,514.480469 
	C360.021362,515.590820 361.050659,516.701172 362.081421,518.281372 
z"/>
<path fill="#F4FDFC" opacity="1.000000" stroke="none" 
	d="
M306.949890,541.026855 
	C306.949860,543.804138 306.949860,546.109314 306.949860,548.414429 
	C306.542419,548.788330 306.134949,549.162231 305.727509,549.536133 
	C304.538116,548.491882 302.342834,547.473267 302.315521,546.399475 
	C302.054230,536.118835 302.159302,525.828857 302.159302,515.104614 
	C307.756195,515.104614 312.899689,514.735413 317.965515,515.204590 
	C323.442078,515.711792 326.807220,519.824646 326.836060,524.942810 
	C326.866119,530.273315 323.331879,534.283813 317.601959,534.883972 
	C314.324188,535.227295 310.981049,534.946106 306.949890,534.946106 
	C306.949890,537.044495 306.949890,538.799561 306.949890,541.026855 
M322.039276,524.598755 
	C320.097076,518.774170 317.046997,517.742249 307.319733,519.632690 
	C307.319733,523.339905 307.319733,527.047119 307.319733,530.976135 
	C310.342438,530.976135 312.991913,531.045837 315.636261,530.959045 
	C319.223480,530.841431 321.670349,529.295593 322.039276,524.598755 
z"/>
<path fill="#F7FDFD" opacity="1.000000" stroke="none" 
	d="
M256.679596,484.297363 
	C251.013443,476.876434 251.785599,468.938629 254.352005,461.265930 
	C256.248260,455.596619 262.614258,452.996613 268.774445,454.161804 
	C274.515778,455.247772 277.642822,458.901489 278.240723,465.459900 
	C275.837128,466.410950 274.258148,466.504669 273.467499,463.183075 
	C272.582825,459.466400 269.388855,457.341248 265.930450,458.239807 
	C263.103119,458.974396 259.097443,461.246216 258.573669,463.518646 
	C257.460175,468.349701 257.483551,473.814758 258.644562,478.633545 
	C259.185608,480.879089 263.256897,483.076904 266.097656,483.760742 
	C269.582336,484.599518 272.221893,482.271820 273.702087,478.724792 
	C274.260529,477.386658 275.961182,476.525177 277.581848,475.924957 
	C278.359680,481.405884 276.015045,484.884033 271.784332,486.755920 
	C266.538116,489.077057 261.407440,488.581573 256.679596,484.297363 
z"/>
<path fill="#F7FDFD" opacity="1.000000" stroke="none" 
	d="
M182.480560,539.964294 
	C182.208206,535.096558 181.667557,530.570496 182.098846,526.139038 
	C182.773209,519.209778 188.633682,514.704529 195.718460,514.988831 
	C202.555099,515.263184 206.553040,519.149109 207.246658,526.444092 
	C204.843140,527.421387 203.266235,527.525818 202.470200,524.189758 
	C201.580231,520.459900 198.560135,518.989746 194.854050,519.033997 
	C191.076706,519.079102 187.930145,521.047546 187.397354,524.512024 
	C186.653488,529.348999 186.617691,534.466003 187.345139,539.302795 
	C187.903000,543.012146 191.164978,545.024780 195.160843,544.965027 
	C198.885239,544.909424 201.333710,543.173401 202.737000,539.583496 
	C203.240295,538.295898 204.876297,537.451111 206.690536,535.753967 
	C207.237839,543.102478 204.184235,547.151917 198.246674,548.635437 
	C191.442780,550.335449 186.049103,547.469910 182.480560,539.964294 
z"/>
<path fill="#F1FCFC" opacity="1.000000" stroke="none" 
	d="
M289.142517,481.860229 
	C289.142700,473.571259 289.254364,465.761658 289.090088,457.957855 
	C289.021210,454.685577 289.894867,453.161926 293.859070,454.448883 
	C293.859070,463.964417 293.859070,473.686523 293.859070,483.976654 
	C298.618652,483.976654 302.897949,483.798401 307.144073,484.095093 
	C308.284576,484.174774 309.324066,485.700195 310.409943,486.561981 
	C310.121918,486.976074 309.833862,487.390167 309.545837,487.804260 
	C302.966553,487.804260 296.387238,487.804260 289.142487,487.804260 
	C289.142487,485.872253 289.142487,484.107086 289.142517,481.860229 
z"/>
<path fill="#FFFFFF" opacity="1.000000" stroke="none" 
	d="
M375.153687,518.997192 
	C373.627747,518.129639 372.566376,517.263428 371.504974,516.397217 
	C371.805725,515.935242 372.106506,515.473328 372.407257,515.011353 
	C380.193695,515.011353 387.982513,514.919983 395.763550,515.124939 
	C396.757965,515.151062 397.711670,516.722595 398.684235,517.578186 
	C398.392700,518.028320 398.101166,518.478455 397.809631,518.928589 
	C394.534058,518.928589 391.258514,518.928589 387.315033,518.928589 
	C387.315033,527.905579 387.261993,536.499695 387.345825,545.092529 
	C387.372620,547.841431 387.045593,549.846802 382.968811,548.541870 
	C382.968811,539.054626 382.968811,529.341675 382.968811,518.998535 
	C380.144318,518.998535 377.881287,518.998535 375.153687,518.997192 
z"/>
<path fill="#FFFFFF" opacity="1.000000" stroke="none" 
	d="
M408.592834,543.881287 
	C408.593842,535.105591 408.669220,526.818298 408.558838,518.533386 
	C408.516724,515.372681 409.633209,514.328918 412.846558,515.484436 
	C412.846558,526.401550 412.846558,537.292053 412.846558,548.190613 
	C408.825226,549.169983 408.825226,549.169983 408.592834,543.881287 
z"/>
<path fill="#3C4145" opacity="1.000000" stroke="none" 
	d="
M301.065399,360.090149 
	C296.121490,352.989319 296.661224,345.638306 298.976593,338.308990 
	C300.132263,334.650726 303.047913,332.868103 307.090454,332.963074 
	C310.960846,333.054016 314.099213,335.034363 314.524506,338.416046 
	C315.275482,344.387665 315.741913,350.695587 314.595551,356.522003 
	C313.413940,362.527588 307.427094,363.778046 301.065399,360.090149 
z"/>
<path fill="#404649" opacity="1.000000" stroke="none" 
	d="
M188.215942,342.847534 
	C189.345566,346.325012 190.357315,349.438080 191.465958,352.849304 
	C187.781464,352.849304 184.642853,352.849304 181.057526,352.849304 
	C182.680420,347.827057 184.229004,343.034760 186.147690,337.097168 
	C187.107117,339.746582 187.602600,341.114868 188.215942,342.847534 
z"/>
<path fill="#404649" opacity="1.000000" stroke="none" 
	d="
M411.926056,353.008606 
	C409.493134,353.008881 407.510620,353.008881 405.004364,353.008881 
	C406.679291,347.846436 408.227142,343.075714 410.203705,336.983643 
	C412.056854,342.374634 413.398773,346.391174 414.822144,350.378601 
	C415.735321,352.936829 414.296692,353.161255 411.926056,353.008606 
z"/>
<path fill="#F6F6F6" opacity="1.000000" stroke="none" 
	d="
M138.597260,144.808334 
	C139.013870,143.758835 139.294327,143.056305 140.051498,141.159531 
	C142.234161,147.666336 144.033112,153.029282 145.950027,158.743912 
	C141.905014,158.743912 138.193817,158.743912 133.999695,158.743912 
	C135.510834,154.141220 136.985962,149.648254 138.597260,144.808334 
z"/>
<path fill="#FAFBFB" opacity="1.000000" stroke="none" 
	d="
M534.484619,166.939697 
	C528.472839,171.857071 523.025757,170.000748 522.188049,162.847885 
	C521.794556,159.488113 522.187256,155.891739 522.968689,152.578293 
	C523.799988,149.053772 526.686829,147.514496 530.272522,148.242203 
	C533.622070,148.921936 535.274902,151.061829 535.037842,154.687515 
	C534.778809,158.649536 534.828430,162.631714 534.484619,166.939697 
z"/>
<path fill="#F6F6F6" opacity="1.000000" stroke="none" 
	d="
M214.200363,150.483185 
	C220.729950,146.059265 225.412384,148.043182 226.278687,155.406387 
	C226.620972,158.315659 226.432358,161.354691 226.021057,164.269089 
	C225.444977,168.351151 222.810059,170.353394 218.673996,169.842926 
	C214.784073,169.362793 212.832977,167.104523 213.148758,163.046402 
	C213.465714,158.972992 213.692139,154.892532 214.200363,150.483185 
z"/>
<path fill="#F6F6F6" opacity="1.000000" stroke="none" 
	d="
M288.718781,151.166260 
	C291.611908,150.019211 294.613861,148.083359 296.824615,148.754333 
	C298.773224,149.345734 300.590698,152.688599 301.105469,155.106201 
	C301.770203,158.227966 301.458282,161.706207 300.878235,164.906128 
	C300.187653,168.716156 297.381226,170.403351 293.519775,169.824615 
	C289.914917,169.284317 287.948364,167.261002 288.140778,163.388809 
	C288.337341,159.433548 288.375885,155.470444 288.718781,151.166260 
z"/>
<path fill="#F8F8F8" opacity="1.000000" stroke="none" 
	d="
M254.987930,170.176056 
	C253.049240,168.824615 250.076218,167.101288 250.307144,166.188736 
	C250.804337,164.223892 252.667191,162.202438 254.508087,161.104187 
	C256.042786,160.188614 258.342834,160.555969 260.254761,160.360138 
	C262.269165,166.990417 261.426270,168.627747 254.987930,170.176056 
z"/>
<path fill="#F8F8F8" opacity="1.000000" stroke="none" 
	d="
M327.780396,169.516602 
	C327.186493,167.317719 326.103027,164.094955 326.812439,163.634537 
	C329.615570,161.815216 332.980865,160.862061 336.350128,159.501907 
	C338.069672,168.659744 336.031067,170.802612 327.780396,169.516602 
z"/>
<path fill="#F8F8F8" opacity="1.000000" stroke="none" 
	d="
M446.768066,168.298859 
	C442.975800,163.273987 442.917053,157.910507 445.034027,152.873276 
	C445.919037,150.767365 449.043427,148.384857 451.175140,148.360535 
	C453.339661,148.335831 456.941284,150.713577 457.424164,152.657547 
	C458.418671,156.661499 458.470062,161.234039 457.583923,165.282486 
	C456.575287,169.890640 452.343262,170.840683 446.768066,168.298859 
z"/>
<path fill="#FDFEFE" opacity="1.000000" stroke="none" 
	d="
M285.144714,215.021881 
	C287.590210,215.055374 289.608673,214.891403 291.559723,215.181091 
	C294.542358,215.623917 296.826202,217.507797 296.070892,220.546707 
	C295.584015,222.505829 293.604309,224.988571 291.791718,225.517899 
	C288.935852,226.351898 285.657623,225.739639 281.661774,225.739639 
	C283.576660,222.019150 278.747498,217.426285 285.144714,215.021881 
z"/>
<path fill="#FDFEFE" opacity="1.000000" stroke="none" 
	d="
M448.189209,239.497955 
	C444.513336,240.273712 441.164429,240.825638 437.330078,241.457550 
	C437.330078,232.253571 437.330078,223.920471 437.330078,215.625336 
	C445.075165,214.230743 449.355591,215.705826 451.691315,220.455948 
	C454.470459,226.107895 453.003693,234.801056 448.189209,239.497955 
z"/>
<path fill="#11CDC7" opacity="1.000000" stroke="none" 
	d="
M397.942688,470.009094 
	C397.942688,465.883423 397.942688,462.252472 397.942688,458.319641 
	C403.291107,457.815521 408.524475,456.989807 411.726166,461.996124 
	C415.194672,467.419647 415.000702,473.552582 412.255066,479.154663 
	C409.467133,484.843018 403.885651,484.207123 397.942719,483.764740 
	C397.942719,479.349152 397.942719,474.926483 397.942688,470.009094 
z"/>
<path fill="#13CDC7" opacity="1.000000" stroke="none" 
	d="
M323.401733,462.759949 
	C326.178894,458.343384 329.897430,457.016968 334.337433,458.559387 
	C338.627930,460.049805 340.341156,463.527557 340.296570,467.944885 
	C340.269745,470.601898 340.422974,473.279602 340.145416,475.911072 
	C339.642242,480.681732 336.135010,483.847260 331.556824,483.985718 
	C327.069336,484.121460 323.256470,481.557922 322.769379,476.896606 
	C322.295898,472.366180 323.014191,467.711212 323.401733,462.759949 
z"/>
<path fill="#13CDC7" opacity="1.000000" stroke="none" 
	d="
M239.302856,531.077881 
	C239.235077,533.525757 239.363007,535.542786 239.059525,537.492676 
	C238.367523,541.938843 234.877136,544.942383 230.486359,544.971558 
	C225.920105,545.001892 222.654541,542.771729 221.855133,538.324341 
	C221.191498,534.632263 221.133636,530.715515 221.534042,526.976074 
	C222.091858,521.766479 225.811157,518.833069 230.632736,519.015808 
	C235.379501,519.195740 238.662842,522.462708 239.235916,527.633972 
	C239.345032,528.618530 239.284790,529.621887 239.302856,531.077881 
z"/>
<path fill="#11CDC7" opacity="1.000000" stroke="none" 
	d="
M322.041077,525.005005 
	C321.670349,529.295593 319.223480,530.841431 315.636261,530.959045 
	C312.991913,531.045837 310.342438,530.976135 307.319733,530.976135 
	C307.319733,527.047119 307.319733,523.339905 307.322571,519.626709 
	C317.046997,517.742249 320.097076,518.774170 322.041077,525.005005 
z"/>
</svg>