<?xml version="1.0" encoding="utf-8"?>
<!-- Generator: Adobe Illustrator 27.5.0, SVG Export Plug-In . SVG Version: 6.00 Build 0)  -->
<svg version="1.1" xmlns="http://www.w3.org/2000/svg" xmlns:xlink="http://www.w3.org/1999/xlink" x="0px" y="0px"
	 viewBox="0 0 841.89 595.276" style="enable-background:new 0 0 841.89 595.276;" xml:space="preserve">
<g id="Background">
	<rect x="123.307" style="fill:none;" width="595.276" height="595.276"/>
</g>
<g id="Halftone">
	<g>
		<g>
			<path d="M433.82,284.763c7.017,7.017,7.017,18.732,0,25.75c-7.017,7.017-18.733,7.017-25.75,0c-7.017-7.017-7.017-18.733,0-25.75
				C415.087,277.745,426.802,277.745,433.82,284.763z"/>
			<g>
				<g>
					<path d="M244.55,109.652c3.293,3.148,3.292,8.316,0.009,11.599c-3.284,3.284-8.452,3.285-11.6-0.009
						c-3.148-3.294-3.206-8.522-0.069-11.659S241.256,106.504,244.55,109.652z"/>
				</g>
				<g>
					<path d="M223.314,131.956c3.007,3.412,3.071,9.016,0.195,12.525c-2.877,3.509-7.47,3.497-10.306-0.035
						c-2.837-3.533-2.986-9.155-0.28-12.543C215.628,128.514,220.307,128.544,223.314,131.956z"/>
				</g>
				<g>
					<path d="M204.906,155.863c2.675,3.629,2.807,9.565,0.339,13.263c-2.468,3.698-6.449,3.682-8.929-0.045
						c-2.481-3.727-2.684-9.678-0.41-13.278C198.18,152.202,202.231,152.234,204.906,155.863z"/>
				</g>
				<g>
					<path d="M189.371,181.087c2.298,3.803,2.465,10.005,0.406,13.857c-2.058,3.852-5.391,3.836-7.473-0.042
						c-2.082-3.878-2.306-10.093-0.463-13.87C183.683,177.255,187.072,177.284,189.371,181.087z"/>
				</g>
				<g>
					<path d="M176.712,207.38c1.881,3.936,2.049,10.342,0.402,14.313c-1.647,3.97-4.298,3.958-5.941-0.032
						c-1.644-3.99-1.855-10.407-0.444-14.323C172.138,203.422,174.831,203.444,176.712,207.38z"/>
				</g>
				<g>
					<path d="M166.936,234.494c1.424,4.029,1.564,10.581,0.329,14.633c-1.235,4.053-3.172,4.047-4.34-0.018
						c-1.168-4.064-1.336-10.623-0.358-14.641C163.545,230.451,165.511,230.464,166.936,234.494z"/>
				</g>
				<g>
					<path d="M160.045,262.181c0.932,4.087,1.015,10.724,0.194,14.824c-0.821,4.1-2.016,4.098-2.674-0.006
						c-0.657-4.104-0.755-10.746-0.208-14.829S159.113,258.093,160.045,262.181z"/>
				</g>
			</g>
		</g>
		<g>
			<g>
				<path d="M380.184,314.269c6.547-6.609,17.301-6.604,24.017,0.112c6.716,6.716,6.722,17.47,0.113,24.017
					c-6.609,6.547-17.3,6.478-23.954-0.175C373.706,331.57,373.637,320.878,380.184,314.269z"/>
			</g>
			<g>
				<path d="M353.091,343.213c5.958-6.065,15.82-5.992,22.045,0.234c6.225,6.225,6.299,16.087,0.234,22.045
					c-6.065,5.958-15.902,5.86-22.021-0.258C347.231,359.115,347.133,349.278,353.091,343.213z"/>
			</g>
			<g>
				<path d="M326.888,371.435c5.373-5.509,14.305-5.406,19.985,0.275c5.68,5.68,5.783,14.613,0.275,19.985
					c-5.509,5.372-14.447,5.276-19.991-0.269C321.612,385.882,321.515,376.944,326.888,371.435z"/>
			</g>
			<g>
				<path d="M301.672,398.781c4.795-4.947,12.777-4.844,17.875,0.254c5.098,5.098,5.201,13.081,0.254,17.875
					c-4.947,4.794-12.958,4.72-17.904-0.225C296.952,411.74,296.878,403.728,301.672,398.781z"/>
			</g>
			<g>
				<path d="M277.544,425.098c4.228-4.386,11.257-4.305,15.752,0.19c4.495,4.495,4.576,11.523,0.19,15.752
					c-4.386,4.228-11.46,4.192-15.796-0.145C273.352,436.557,273.316,429.484,277.544,425.098z"/>
			</g>
			<g>
				<path d="M254.605,450.232c3.678-3.833,9.763-3.788,13.649,0.097c3.885,3.885,3.93,9.971,0.097,13.649
					c-3.833,3.678-9.974,3.688-13.704-0.043C250.917,460.205,250.927,454.065,254.605,450.232z"/>
			</g>
			<g>
				<g>
					<path d="M156.045,290.193c0.406,4.111,0.406,10.779,0,14.89c-0.406,4.111-0.832,4.112-0.946,0.001
						c-0.114-4.111-0.114-10.78,0-14.892C155.214,286.081,155.639,286.082,156.045,290.193z"/>
				</g>
				<g>
					<path d="M268.351,131.298c3.833,3.678,3.788,9.763-0.097,13.649c-3.885,3.885-9.971,3.931-13.649,0.098
						c-3.678-3.833-3.688-9.974,0.043-13.704C258.378,127.61,264.518,127.62,268.351,131.298z"/>
					<g>
						<path d="M245.128,155.347c3.509,3.885,3.519,10.3,0.072,14.327c-3.446,4.027-8.902,4.046-12.23,0.039
							c-3.328-4.007-3.422-10.43-0.156-14.335C236.08,151.473,241.619,151.462,245.128,155.347z"/>
					</g>
					<g>
						<path d="M224.426,180.704c3.142,4.035,3.214,10.655,0.202,14.784c-3.012,4.129-7.809,4.132-10.748,0.005
							c-2.939-4.128-3.077-10.754-0.267-14.791C216.422,176.665,221.285,176.669,224.426,180.704z"/>
					</g>
					<g>
						<path d="M206.316,207.091c2.736,4.134,2.836,10.885,0.252,15.077c-2.584,4.192-6.698,4.189-9.212-0.011
							c-2.514-4.2-2.662-10.957-0.3-15.084C199.418,202.947,203.58,202.957,206.316,207.091z"/>
					</g>
					<g>
						<path d="M190.82,234.274c2.297,4.186,2.392,11,0.23,15.218c-2.162,4.218-5.572,4.214-7.63-0.013
							c-2.058-4.227-2.184-11.046-0.261-15.224C185.081,230.078,188.523,230.088,190.82,234.274z"/>
					</g>
					<g>
						<path d="M177.96,262.021c1.829,4.195,1.889,11.007,0.144,15.216c-1.746,4.209-4.435,4.207-6.011-0.007
							c-1.575-4.214-1.651-11.032-0.159-15.221C173.427,257.819,176.132,257.826,177.96,262.021z"/>
					</g>
					<g>
						<path d="M167.759,290.097c1.336,4.164,1.336,10.917,0,15.081c-1.336,4.164-3.29,4.167-4.361,0.003
							c-1.07-4.164-1.07-10.922,0-15.086C164.469,285.93,166.424,285.933,167.759,290.097z"/>
					</g>
					<g>
						<path d="M160.239,318.271c0.821,4.1,0.738,10.737-0.194,14.824c-0.932,4.087-2.141,4.093-2.688,0.01
							c-0.546-4.083-0.449-10.725,0.208-14.829C158.222,314.172,159.418,314.171,160.239,318.271z"/>
					</g>
				</g>
				<g>
					<path d="M293.485,154.237c4.386,4.228,4.305,11.257-0.19,15.752s-11.523,4.576-15.751,0.19
						c-4.228-4.386-4.192-11.46,0.145-15.796C282.025,150.045,289.099,150.009,293.485,154.237z"/>
					<g>
						<path d="M268.503,179.831c4.028,4.365,3.992,11.593-0.034,16.132c-4.025,4.539-10.373,4.58-14.216,0.098
							c-3.843-4.482-3.884-11.703-0.044-16.125C258.051,175.514,264.476,175.466,268.503,179.831z"/>
					</g>
					<g>
						<path d="M245.731,206.434c3.628,4.437,3.651,11.724,0.086,16.267c-3.565,4.542-9.208,4.559-12.629,0.041
							c-3.421-4.518-3.5-11.801-0.142-16.263C236.405,202.018,242.103,201.997,245.731,206.434z"/>
					</g>
					<g>
						<path d="M225.264,233.775c3.193,4.451,3.24,11.719,0.125,16.226c-3.115,4.507-8.035,4.511-11.005,0.01
							c-2.969-4.501-3.051-11.768-0.16-16.225C217.115,229.329,222.071,229.324,225.264,233.775z"/>
					</g>
					<g>
						<path d="M207.144,261.634c2.73,4.414,2.767,11.591,0.093,16.027c-2.675,4.436-6.862,4.436-9.355-0.001
							c-2.493-4.436-2.547-11.616-0.11-16.029C200.21,257.219,204.414,257.221,207.144,261.634z"/>
					</g>
					<g>
						<path d="M191.411,289.795c2.246,4.331,2.246,11.355,0,15.685c-2.246,4.331-5.692,4.333-7.691,0.002
							c-1.999-4.331-1.999-11.358,0-15.689C185.718,285.462,189.165,285.464,191.411,289.795z"/>
					</g>
					<g>
						<path d="M178.104,318.039c1.746,4.209,1.685,11.021-0.144,15.216c-1.829,4.195-4.533,4.202-6.026,0.012
							c-1.492-4.189-1.417-11.008,0.159-15.221C173.669,313.832,176.359,313.83,178.104,318.039z"/>
					</g>
					<g>
						<path d="M167.265,346.149c1.235,4.053,1.095,10.604-0.329,14.633c-1.425,4.029-3.391,4.043-4.369,0.025
							c-0.978-4.018-0.81-10.576,0.358-14.641C164.092,342.102,166.03,342.096,167.265,346.149z"/>
					</g>
				</g>
				<g>
					<path d="M319.801,178.365c4.947,4.794,4.844,12.777-0.254,17.875c-5.098,5.098-13.081,5.201-17.875,0.254
						c-4.794-4.947-4.721-12.958,0.225-17.904C306.843,173.644,314.854,173.57,319.801,178.365z"/>
					<g>
						<path d="M293.311,205.284c4.559,4.848,4.492,12.879-0.11,17.912c-4.602,5.033-11.858,5.084-16.236,0.132
							c-4.378-4.952-4.377-12.957,0.043-17.885C281.428,200.514,288.751,200.436,293.311,205.284z"/>
					</g>
					<g>
						<path d="M268.71,232.91c4.13,4.83,4.12,12.757,0.004,17.685c-4.116,4.928-10.623,4.947-14.548,0.055
							c-3.926-4.893-3.958-12.801-0.046-17.667C258.033,228.117,264.581,228.08,268.71,232.91z"/>
					</g>
					<g>
						<path d="M246.125,260.975c3.667,4.749,3.678,12.493,0.036,17.281c-3.641,4.788-9.384,4.791-12.831,0.013
							c-3.446-4.778-3.477-12.51-0.056-17.27C236.696,256.239,242.459,256.225,246.125,260.975z"/>
					</g>
					<g>
						<path d="M225.615,289.277c3.179,4.615,3.179,12.106,0,16.722c-3.179,4.616-8.152,4.613-11.1-0.002
							c-2.948-4.616-2.948-12.102,0-16.717C217.463,284.664,222.436,284.661,225.615,289.277z"/>
					</g>
					<g>
						<path d="M207.237,317.614c2.675,4.436,2.638,11.614-0.093,16.027c-2.73,4.414-6.934,4.415-9.371,0.002
							c-2.437-4.413-2.384-11.592,0.11-16.029C200.375,313.178,204.562,313.178,207.237,317.614z"/>
					</g>
					<g>
						<path d="M191.05,345.783c2.162,4.218,2.067,11.032-0.23,15.218c-2.297,4.186-5.739,4.196-7.661,0.019
							c-1.923-4.178-1.797-10.997,0.261-15.224C185.478,341.569,188.889,341.565,191.05,345.783z"/>
					</g>
					<g>
						<path d="M177.114,373.583c1.647,3.97,1.479,10.377-0.402,14.313c-1.881,3.936-4.574,3.958-5.984,0.042
							c-1.41-3.916-1.199-10.333,0.444-14.323C172.816,369.625,175.466,369.613,177.114,373.583z"/>
					</g>
				</g>
				<g>
					<path d="M347.147,203.581c5.509,5.372,5.406,14.305-0.275,19.985c-5.68,5.68-14.613,5.783-19.985,0.275
						c-5.373-5.509-5.276-14.447,0.269-19.991C332.701,198.305,341.639,198.208,347.147,203.581z"/>
					<g>
						<path d="M319.418,231.586c5.099,5.329,5.022,14.139-0.142,19.634c-5.163,5.495-13.332,5.537-18.261,0.127
							c-4.929-5.41-4.903-14.169,0.091-19.583C306.1,226.35,314.319,226.257,319.418,231.586z"/>
					</g>
					<g>
						<path d="M293.254,259.989c4.644,5.209,4.624,13.736-0.03,19.011c-4.654,5.275-12.032,5.281-16.482,0.036
							c-4.45-5.246-4.453-13.736,0.007-18.975C281.208,254.821,288.61,254.78,293.254,259.989z"/>
					</g>
					<g>
						<path d="M268.809,288.529c4.154,5.026,4.154,13.192,0,18.218c-4.154,5.025-10.728,5.014-14.671-0.011
							c-3.943-5.026-3.943-13.17,0-18.195C258.082,283.514,264.655,283.503,268.809,288.529z"/>
					</g>
					<g>
						<path d="M246.162,317.02c3.641,4.788,3.63,12.532-0.036,17.281c-3.667,4.749-9.429,4.736-12.85-0.024
							c-3.421-4.76-3.39-12.492,0.056-17.27C236.777,312.229,242.521,312.231,246.162,317.02z"/>
					</g>
					<g>
						<path d="M225.389,345.274c3.115,4.507,3.068,11.775-0.125,16.226c-3.193,4.451-8.149,4.446-11.04-0.011
							c-2.891-4.458-2.809-11.724,0.16-16.225C217.354,340.763,222.274,340.767,225.389,345.274z"/>
					</g>
					<g>
						<path d="M206.568,373.107c2.584,4.192,2.484,10.943-0.252,15.077c-2.736,4.134-6.898,4.144-9.26,0.017
							c-2.362-4.127-2.214-10.884,0.3-15.084C199.87,368.918,203.984,368.915,206.568,373.107z"/>
					</g>
					<g>
						<path d="M189.777,400.331c2.058,3.852,1.892,10.054-0.406,13.857c-2.298,3.803-5.688,3.832-7.53,0.055
							c-1.842-3.777-1.619-9.992,0.463-13.87C184.386,396.495,187.718,396.479,189.777,400.331z"/>
					</g>
				</g>
				<g>
					<path d="M375.37,229.784c6.065,5.958,5.991,15.82-0.234,22.045c-6.225,6.225-16.087,6.299-22.045,0.234
						c-5.958-6.065-5.86-15.902,0.258-22.021C359.468,223.924,369.305,223.826,375.37,229.784z"/>
					<g>
						<path d="M346.692,258.615c5.642,5.803,5.584,15.354-0.111,21.265c-5.695,5.911-14.766,5.919-20.261,0.069
							c-5.495-5.85-5.466-15.319,0.082-21.184C331.951,252.901,341.05,252.811,346.692,258.615z"/>
					</g>
					<g>
						<path d="M319.248,287.531c5.167,5.571,5.167,14.643,0,20.214c-5.167,5.571-13.413,5.543-18.404-0.028
							c-4.991-5.571-4.991-14.586,0-20.158C305.835,281.988,314.082,281.96,319.248,287.531z"/>
					</g>
					<g>
						<path d="M293.224,316.276c4.654,5.275,4.674,13.802,0.03,19.011c-4.644,5.209-12.045,5.168-16.505-0.071
							c-4.46-5.239-4.456-13.73-0.007-18.975C281.191,310.995,288.57,311.001,293.224,316.276z"/>
					</g>
					<g>
						<path d="M268.714,344.681c4.116,4.928,4.126,12.855-0.004,17.685c-4.13,4.83-10.678,4.793-14.59-0.073
							c-3.912-4.866-3.88-12.774,0.046-17.667C258.092,339.733,264.598,339.752,268.714,344.681z"/>
					</g>
					<g>
						<path d="M245.817,372.574c3.565,4.543,3.542,11.83-0.086,16.267c-3.628,4.437-9.326,4.417-12.684-0.045
							c-3.359-4.461-3.279-11.745,0.142-16.263C236.609,368.015,242.252,368.032,245.817,372.574z"/>
					</g>
					<g>
						<path d="M224.628,399.788c3.012,4.129,2.939,10.748-0.202,14.784c-3.142,4.036-8.004,4.039-10.814,0.003
							c-2.809-4.037-2.671-10.663,0.267-14.791C216.819,395.655,221.616,395.659,224.628,399.788z"/>
					</g>
					<g>
						<path d="M205.245,426.15c2.468,3.698,2.336,9.634-0.339,13.263c-2.675,3.629-6.726,3.661-9,0.061
							c-2.274-3.601-2.071-9.552,0.41-13.279C198.796,422.468,202.777,422.452,205.245,426.15z"/>
					</g>
				</g>
				<g>
					<path d="M404.313,256.877c6.609,6.547,6.604,17.301-0.113,24.017c-6.716,6.716-17.47,6.721-24.017,0.112
						c-6.547-6.609-6.478-17.3,0.175-23.954C387.013,250.399,397.704,250.33,404.313,256.877z"/>
					<g>
						<path d="M374.998,286.252c6.182,6.267,6.182,16.504,0,22.771c-6.182,6.267-16.132,6.208-22.203-0.059
							c-6.07-6.267-6.07-16.386,0-22.653C358.866,280.044,368.816,279.985,374.998,286.252z"/>
					</g>
					<g>
						<path d="M346.581,315.396c5.695,5.911,5.753,15.462,0.111,21.265c-5.642,5.803-14.741,5.714-20.289-0.15
							c-5.548-5.864-5.577-15.333-0.082-21.184C331.815,309.477,340.886,309.485,346.581,315.396z"/>
					</g>
					<g>
						<path d="M319.276,344.056c5.163,5.495,5.241,14.305,0.142,19.634c-5.099,5.329-13.318,5.235-18.312-0.178
							c-4.994-5.414-5.02-14.173-0.091-19.583C305.944,338.519,314.112,338.561,319.276,344.056z"/>
					</g>
					<g>
						<path d="M293.2,372.079c4.602,5.033,4.67,13.064,0.11,17.912c-4.559,4.848-11.882,4.77-16.302-0.159
							c-4.421-4.929-4.421-12.934-0.044-17.886C281.342,366.995,288.598,367.047,293.2,372.079z"/>
					</g>
					<g>
						<path d="M268.469,399.313c4.025,4.539,4.062,11.767,0.034,16.133c-4.028,4.365-10.453,4.317-14.293-0.105
							c-3.841-4.422-3.799-11.643,0.044-16.125C258.097,394.732,264.444,394.773,268.469,399.313z"/>
					</g>
					<g>
						<path d="M245.2,425.602c3.446,4.027,3.437,10.442-0.072,14.327c-3.509,3.885-9.048,3.874-12.314-0.031
							c-3.266-3.905-3.172-10.327,0.156-14.334C236.298,421.556,241.754,421.575,245.2,425.602z"/>
					</g>
					<g>
						<path d="M223.508,450.795c2.876,3.509,2.813,9.113-0.195,12.525c-3.007,3.412-7.686,3.442-10.392,0.054
							c-2.706-3.388-2.556-9.01,0.28-12.543C216.039,447.298,220.632,447.286,223.508,450.795z"/>
					</g>
				</g>
				<g>
					<path d="M232.959,474.033c3.148-3.293,8.316-3.292,11.6-0.009c3.283,3.284,3.285,8.452-0.009,11.6
						c-3.294,3.148-8.521,3.206-11.659,0.069C229.752,482.555,229.811,477.327,232.959,474.033z"/>
				</g>
				<g>
					<path d="M255.263,100.007c3.412,3.007,9.016,3.071,12.525,0.195c3.509-2.877,3.497-7.47-0.035-10.306
						c-3.532-2.837-9.155-2.986-12.543-0.28C251.821,92.321,251.851,97,255.263,100.007z"/>
				</g>
				<g>
					<path d="M279.17,81.599c3.629,2.675,9.565,2.807,13.263,0.339c3.698-2.468,3.682-6.448-0.045-8.929
						c-3.727-2.48-9.678-2.684-13.279-0.41C275.509,74.873,275.541,78.924,279.17,81.599z"/>
				</g>
				<g>
					<path d="M304.394,66.063c3.803,2.298,10.005,2.465,13.857,0.406c3.852-2.058,3.836-5.391-0.042-7.473
						c-3.878-2.082-10.093-2.306-13.87-0.463C300.562,60.376,300.591,63.765,304.394,66.063z"/>
				</g>
				<g>
					<path d="M330.687,53.405c3.936,1.881,10.342,2.049,14.313,0.402c3.97-1.647,3.958-4.298-0.031-5.942
						s-10.407-1.854-14.323-0.444C326.729,48.831,326.751,51.524,330.687,53.405z"/>
				</g>
				<g>
					<path d="M357.801,43.628c4.03,1.424,10.581,1.564,14.633,0.329c4.053-1.235,4.047-3.172-0.018-4.34
						c-4.065-1.168-10.623-1.336-14.641-0.358C353.758,40.238,353.771,42.204,357.801,43.628z"/>
				</g>
				<g>
					<path d="M385.488,36.738c4.087,0.932,10.724,1.015,14.824,0.194c4.1-0.821,4.099-2.016-0.005-2.674s-10.746-0.754-14.829-0.208
						C381.395,34.596,381.4,35.806,385.488,36.738z"/>
				</g>
				<g>
					<path d="M437.576,256.877c-6.609,6.547-6.604,17.301,0.113,24.017c6.716,6.716,17.47,6.721,24.017,0.112
						c6.547-6.609,6.478-17.3-0.175-23.954C454.877,250.398,444.186,250.33,437.576,256.877z"/>
				</g>
				<g>
					<path d="M466.52,229.784c-6.065,5.958-5.992,15.82,0.234,22.045c6.225,6.225,16.087,6.299,22.045,0.234
						s5.86-15.902-0.258-22.021C482.422,223.924,472.585,223.826,466.52,229.784z"/>
				</g>
				<g>
					<path d="M494.742,203.581c-5.509,5.372-5.406,14.305,0.275,19.985c5.68,5.68,14.613,5.783,19.985,0.275
						c5.373-5.509,5.276-14.447-0.268-19.991C509.189,198.305,500.251,198.208,494.742,203.581z"/>
				</g>
				<g>
					<path d="M522.089,178.365c-4.947,4.794-4.844,12.777,0.254,17.875c5.098,5.098,13.081,5.201,17.875,0.254
						c4.794-4.947,4.721-12.958-0.225-17.904C535.047,173.644,527.036,173.57,522.089,178.365z"/>
				</g>
				<g>
					<path d="M548.405,154.237c-4.386,4.228-4.305,11.257,0.19,15.752c4.495,4.495,11.523,4.576,15.752,0.19
						c4.228-4.386,4.192-11.46-0.145-15.796C559.864,150.045,552.791,150.009,548.405,154.237z"/>
				</g>
				<g>
					<path d="M573.539,131.298c-3.833,3.678-3.788,9.763,0.097,13.649c3.885,3.885,9.971,3.93,13.649,0.098
						c3.678-3.833,3.688-9.974-0.043-13.704C583.512,127.61,577.372,127.62,573.539,131.298z"/>
				</g>
				<g>
					<path d="M413.5,32.738c4.111,0.406,10.779,0.406,14.89,0c4.111-0.406,4.112-0.832,0.001-0.946
						c-4.111-0.114-10.78-0.114-14.892,0C409.388,31.906,409.389,32.332,413.5,32.738z"/>
				</g>
				<g>
					<path d="M278.654,121.821c3.885,3.509,10.3,3.518,14.327,0.072c4.027-3.446,4.046-8.902,0.039-12.23
						c-4.007-3.328-10.43-3.422-14.335-0.156C274.78,112.773,274.769,118.312,278.654,121.821z"/>
				</g>
				<g>
					<path d="M304.011,101.119c4.036,3.142,10.655,3.214,14.784,0.202c4.129-3.012,4.132-7.809,0.004-10.748
						c-4.128-2.939-10.754-3.077-14.791-0.268C299.972,93.115,299.976,97.977,304.011,101.119z"/>
				</g>
				<g>
					<path d="M330.398,83.009c4.134,2.736,10.885,2.836,15.077,0.252c4.192-2.584,4.189-6.698-0.011-9.212
						c-4.2-2.514-10.957-2.662-15.084-0.3C326.254,76.111,326.264,80.273,330.398,83.009z"/>
				</g>
				<g>
					<path d="M357.581,67.513c4.186,2.297,11,2.392,15.218,0.23c4.218-2.162,4.214-5.572-0.013-7.631
						c-4.227-2.058-11.046-2.184-15.224-0.261C353.385,61.774,353.395,65.216,357.581,67.513z"/>
				</g>
				<g>
					<path d="M385.328,54.653c4.194,1.829,11.007,1.889,15.216,0.144c4.209-1.746,4.207-4.435-0.007-6.011
						c-4.214-1.576-11.032-1.651-15.221-0.159C381.126,50.12,381.133,52.824,385.328,54.653z"/>
				</g>
				<g>
					<path d="M413.404,44.452c4.165,1.335,10.917,1.335,15.082,0c4.164-1.336,4.167-3.29,0.003-4.361
						c-4.165-1.07-10.922-1.07-15.087,0C409.237,41.162,409.24,43.117,413.404,44.452z"/>
				</g>
				<g>
					<path d="M441.578,36.932c4.1,0.821,10.737,0.738,14.824-0.194c4.087-0.932,4.093-2.142,0.01-2.688
						c-4.083-0.546-10.725-0.449-14.829,0.208C437.479,34.915,437.478,36.111,441.578,36.932z"/>
				</g>
				<g>
					<path d="M303.138,145.196c4.365,4.028,11.593,3.992,16.133-0.034c4.539-4.026,4.58-10.373,0.098-14.216
						c-4.482-3.843-11.703-3.884-16.125-0.044C298.821,134.744,298.773,141.169,303.138,145.196z"/>
				</g>
				<g>
					<path d="M329.741,122.424c4.437,3.628,11.724,3.651,16.267,0.086c4.543-3.565,4.559-9.208,0.041-12.629
						c-4.518-3.421-11.801-3.5-16.263-0.142C325.325,113.098,325.304,118.796,329.741,122.424z"/>
				</g>
				<g>
					<path d="M357.082,101.957c4.451,3.193,11.719,3.24,16.226,0.125c4.507-3.115,4.511-8.035,0.01-11.005
						c-4.501-2.969-11.768-3.051-16.225-0.16C352.636,93.808,352.631,98.764,357.082,101.957z"/>
				</g>
				<g>
					<path d="M384.941,83.837c4.414,2.731,11.592,2.768,16.027,0.093c4.436-2.675,4.436-6.862-0.001-9.355
						c-4.436-2.493-11.616-2.547-16.029-0.109C380.526,76.903,380.528,81.107,384.941,83.837z"/>
				</g>
				<g>
					<path d="M413.102,68.104c4.331,2.246,11.354,2.246,15.685,0c4.331-2.246,4.333-5.692,0.002-7.691
						c-4.331-1.999-11.358-1.999-15.689,0C408.769,62.411,408.771,65.858,413.102,68.104z"/>
				</g>
				<g>
					<path d="M441.346,54.797c4.209,1.745,11.021,1.685,15.216-0.144c4.195-1.829,4.202-4.533,0.012-6.026
						c-4.189-1.492-11.008-1.417-15.221,0.159C437.139,50.362,437.138,53.051,441.346,54.797z"/>
				</g>
				<g>
					<path d="M469.456,43.958c4.053,1.235,10.604,1.095,14.633-0.329c4.03-1.424,4.043-3.39,0.025-4.369
						c-4.018-0.978-10.576-0.81-14.641,0.358C465.409,40.785,465.403,42.723,469.456,43.958z"/>
				</g>
				<g>
					<path d="M328.591,170.003c4.848,4.559,12.879,4.492,17.912-0.11c5.033-4.602,5.084-11.858,0.132-16.236
						c-4.952-4.378-12.957-4.377-17.886,0.044C323.821,158.122,323.743,165.444,328.591,170.003z"/>
				</g>
				<g>
					<path d="M356.217,145.403c4.83,4.13,12.757,4.12,17.685,0.004c4.928-4.116,4.947-10.623,0.055-14.548
						c-4.893-3.925-12.801-3.958-17.667-0.046C351.424,134.725,351.387,141.274,356.217,145.403z"/>
				</g>
				<g>
					<path d="M384.282,122.818c4.75,3.667,12.493,3.678,17.281,0.036c4.788-3.641,4.791-9.384,0.013-12.831
						c-4.778-3.446-12.511-3.477-17.27-0.056C379.546,113.389,379.532,119.152,384.282,122.818z"/>
				</g>
				<g>
					<path d="M412.584,102.308c4.615,3.179,12.106,3.179,16.722,0c4.616-3.179,4.613-8.152-0.002-11.1s-12.102-2.948-16.717,0
						C407.971,94.156,407.968,99.129,412.584,102.308z"/>
				</g>
				<g>
					<path d="M440.921,83.93c4.436,2.675,11.613,2.638,16.027-0.093c4.414-2.731,4.415-6.934,0.002-9.371
						c-4.413-2.437-11.592-2.384-16.029,0.109C436.485,77.068,436.485,81.255,440.921,83.93z"/>
				</g>
				<g>
					<path d="M469.09,67.743c4.218,2.162,11.032,2.067,15.218-0.23c4.186-2.297,4.196-5.739,0.019-7.661
						c-4.178-1.923-10.997-1.797-15.224,0.261C464.876,62.171,464.872,65.581,469.09,67.743z"/>
				</g>
				<g>
					<path d="M496.89,53.807c3.97,1.647,10.377,1.479,14.313-0.402c3.936-1.881,3.957-4.574,0.042-5.984
						c-3.916-1.41-10.333-1.199-14.323,0.444C492.932,49.509,492.92,52.159,496.89,53.807z"/>
				</g>
				<g>
					<path d="M354.893,196.111c5.329,5.099,14.139,5.022,19.634-0.142c5.495-5.163,5.537-13.332,0.127-18.261
						c-5.41-4.929-14.169-4.903-19.583,0.091C349.657,182.793,349.564,191.012,354.893,196.111z"/>
				</g>
				<g>
					<path d="M383.296,169.947c5.209,4.644,13.736,4.624,19.011-0.03c5.275-4.654,5.281-12.032,0.035-16.482
						c-5.246-4.449-13.736-4.453-18.975,0.007C378.128,157.901,378.087,165.303,383.296,169.947z"/>
				</g>
				<g>
					<path d="M411.836,145.502c5.026,4.154,13.192,4.154,18.218,0c5.026-4.154,5.015-10.727-0.011-14.671
						c-5.026-3.943-13.17-3.943-18.196,0C406.822,134.775,406.81,141.348,411.836,145.502z"/>
				</g>
				<g>
					<path d="M440.327,122.855c4.788,3.641,12.532,3.63,17.281-0.036c4.75-3.667,4.736-9.429-0.023-12.85
						c-4.76-3.421-12.492-3.39-17.271,0.056C435.536,113.47,435.538,119.214,440.327,122.855z"/>
				</g>
				<g>
					<path d="M468.581,102.082c4.507,3.115,11.775,3.068,16.226-0.125c4.451-3.193,4.446-8.149-0.012-11.04
						c-4.457-2.891-11.724-2.809-16.225,0.16C464.07,94.047,464.074,98.967,468.581,102.082z"/>
				</g>
				<g>
					<path d="M496.414,83.261c4.192,2.584,10.943,2.484,15.077-0.252c4.134-2.736,4.144-6.898,0.017-9.26
						c-4.127-2.362-10.884-2.214-15.084,0.3C492.225,76.563,492.222,80.677,496.414,83.261z"/>
				</g>
				<g>
					<path d="M523.638,66.47c3.852,2.058,10.054,1.892,13.857-0.406c3.803-2.298,3.832-5.688,0.055-7.53
						c-3.777-1.842-9.992-1.619-13.87,0.463C519.802,61.079,519.786,64.411,523.638,66.47z"/>
				</g>
				<g>
					<path d="M381.922,223.385c5.803,5.642,15.354,5.584,21.265-0.111c5.911-5.695,5.919-14.766,0.069-20.261
						c-5.851-5.494-15.32-5.466-21.184,0.082C376.208,208.644,376.118,217.743,381.922,223.385z"/>
				</g>
				<g>
					<path d="M410.838,195.941c5.571,5.167,14.643,5.167,20.214,0c5.571-5.167,5.543-13.413-0.028-18.404
						c-5.571-4.991-14.586-4.991-20.158,0C405.295,182.528,405.267,190.775,410.838,195.941z"/>
				</g>
				<g>
					<path d="M439.583,169.917c5.275,4.654,13.801,4.674,19.011,0.03c5.209-4.644,5.168-12.045-0.071-16.505
						c-5.239-4.46-13.73-4.456-18.975-0.007C434.302,157.884,434.308,165.262,439.583,169.917z"/>
				</g>
				<g>
					<path d="M467.988,145.407c4.928,4.116,12.855,4.126,17.685-0.004c4.83-4.13,4.793-10.678-0.073-14.59
						c-4.866-3.912-12.774-3.88-17.667,0.046C463.04,134.785,463.059,141.291,467.988,145.407z"/>
				</g>
				<g>
					<path d="M495.882,122.51c4.542,3.565,11.83,3.542,16.267-0.086c4.437-3.628,4.417-9.326-0.045-12.685
						c-4.461-3.359-11.745-3.28-16.263,0.142C491.322,113.302,491.339,118.945,495.882,122.51z"/>
				</g>
				<g>
					<path d="M523.095,101.321c4.129,3.012,10.748,2.94,14.784-0.202c4.035-3.142,4.039-8.004,0.003-10.814
						c-4.037-2.809-10.663-2.671-14.791,0.268C518.962,93.512,518.966,98.309,523.095,101.321z"/>
				</g>
				<g>
					<path d="M549.457,81.938c3.698,2.468,9.634,2.336,13.263-0.339c3.629-2.675,3.661-6.726,0.061-9
						c-3.601-2.274-9.552-2.07-13.279,0.41C545.775,75.489,545.759,79.47,549.457,81.938z"/>
				</g>
				<g>
					<path d="M409.559,251.691c6.267,6.182,16.504,6.182,22.771,0c6.267-6.182,6.208-16.132-0.059-22.202
						c-6.267-6.07-16.386-6.07-22.653,0C403.351,235.559,403.292,245.509,409.559,251.691z"/>
				</g>
				<g>
					<path d="M438.703,223.274c5.911,5.695,15.462,5.753,21.265,0.111c5.803-5.642,5.714-14.741-0.15-20.289
						c-5.864-5.548-15.333-5.577-21.184-0.082C432.784,208.508,432.792,217.579,438.703,223.274z"/>
				</g>
				<g>
					<path d="M467.363,195.969c5.495,5.164,14.305,5.241,19.634,0.142c5.329-5.099,5.235-13.318-0.178-18.312
						c-5.414-4.994-14.173-5.02-19.583-0.091C461.826,182.637,461.868,190.805,467.363,195.969z"/>
				</g>
				<g>
					<path d="M495.386,169.893c5.033,4.602,13.064,4.67,17.912,0.11c4.848-4.559,4.77-11.882-0.159-16.303
						c-4.929-4.421-12.934-4.421-17.886-0.043C490.302,158.035,490.354,165.291,495.386,169.893z"/>
				</g>
				<g>
					<path d="M522.62,145.162c4.539,4.025,11.767,4.062,16.132,0.034c4.365-4.028,4.317-10.453-0.105-14.293
						c-4.422-3.841-11.643-3.799-16.125,0.044C518.039,134.79,518.081,141.137,522.62,145.162z"/>
				</g>
				<g>
					<path d="M548.909,121.893c4.027,3.446,10.442,3.437,14.327-0.072c3.885-3.509,3.874-9.048-0.031-12.314
						c-3.905-3.266-10.327-3.172-14.335,0.156S544.882,118.447,548.909,121.893z"/>
				</g>
				<g>
					<path d="M574.102,100.201c3.508,2.877,9.113,2.813,12.525-0.195c3.412-3.007,3.442-7.686,0.054-10.392
						c-3.388-2.706-9.01-2.556-12.543,0.28C570.605,92.732,570.594,97.325,574.102,100.201z"/>
				</g>
				<g>
					<g>
						<path d="M608.931,474.033c-3.148-3.294-8.316-3.292-11.599-0.009c-3.284,3.284-3.285,8.452,0.009,11.6
							c3.294,3.148,8.521,3.206,11.659,0.069C612.137,482.555,612.079,477.327,608.931,474.033z"/>
					</g>
					<g>
						<path d="M586.627,495.269c-3.412-3.007-9.016-3.071-12.525-0.195c-3.509,2.877-3.497,7.47,0.035,10.306
							c3.533,2.837,9.155,2.986,12.543,0.28C590.068,502.955,590.038,498.276,586.627,495.269z"/>
					</g>
					<g>
						<path d="M562.719,513.677c-3.629-2.675-9.565-2.807-13.263-0.339c-3.698,2.468-3.682,6.448,0.045,8.929
							c3.727,2.48,9.678,2.684,13.279,0.41C566.381,520.403,566.349,516.351,562.719,513.677z"/>
					</g>
					<g>
						<path d="M537.495,529.212c-3.803-2.298-10.005-2.465-13.857-0.406c-3.852,2.058-3.836,5.391,0.042,7.473
							c3.878,2.082,10.093,2.306,13.87,0.464C541.327,534.9,541.299,531.51,537.495,529.212z"/>
					</g>
					<g>
						<path d="M511.203,541.87c-3.936-1.881-10.342-2.049-14.313-0.402c-3.97,1.647-3.958,4.298,0.032,5.942
							c3.99,1.644,10.407,1.855,14.323,0.444C515.16,546.445,515.138,543.751,511.203,541.87z"/>
					</g>
					<g>
						<path d="M484.089,551.647c-4.029-1.424-10.581-1.564-14.633-0.329c-4.053,1.235-4.047,3.172,0.018,4.34
							c4.064,1.168,10.623,1.336,14.641,0.358C488.132,555.038,488.119,553.072,484.089,551.647z"/>
					</g>
					<g>
						<path d="M456.402,558.538c-4.087-0.932-10.724-1.015-14.824-0.194c-4.1,0.821-4.099,2.016,0.005,2.674
							c4.104,0.657,10.746,0.754,14.829,0.208C460.495,560.679,460.489,559.47,456.402,558.538z"/>
					</g>
				</g>
				<g>
					<path d="M428.39,562.538c-4.111-0.406-10.779-0.406-14.89,0c-4.111,0.406-4.112,0.832-0.001,0.946
						c4.111,0.114,10.78,0.114,14.892,0C432.502,563.369,432.501,562.943,428.39,562.538z"/>
				</g>
				<g>
					<path d="M587.285,450.232c-3.678-3.833-9.763-3.788-13.649,0.097c-3.885,3.885-3.931,9.971-0.098,13.649
						c3.833,3.678,9.974,3.688,13.704-0.043C590.972,460.205,590.962,454.065,587.285,450.232z"/>
					<g>
						<path d="M563.236,473.455c-3.885-3.509-10.3-3.518-14.327-0.072c-4.027,3.446-4.046,8.902-0.039,12.23
							c4.007,3.328,10.43,3.422,14.335,0.156C567.11,482.503,567.121,476.964,563.236,473.455z"/>
					</g>
					<g>
						<path d="M537.878,494.157c-4.036-3.142-10.655-3.214-14.784-0.202c-4.129,3.012-4.132,7.809-0.005,10.748
							c4.128,2.939,10.754,3.077,14.791,0.268C541.918,502.161,541.914,497.298,537.878,494.157z"/>
					</g>
					<g>
						<path d="M511.491,512.267c-4.134-2.737-10.885-2.836-15.077-0.252c-4.192,2.584-4.189,6.698,0.011,9.213
							c4.2,2.514,10.957,2.662,15.084,0.3C515.636,519.165,515.626,515.003,511.491,512.267z"/>
					</g>
					<g>
						<path d="M484.308,527.763c-4.186-2.297-11-2.392-15.218-0.23c-4.218,2.162-4.214,5.572,0.013,7.63
							c4.227,2.058,11.046,2.184,15.224,0.261C488.505,533.501,488.494,530.06,484.308,527.763z"/>
					</g>
					<g>
						<path d="M456.562,540.622c-4.195-1.829-11.007-1.889-15.216-0.144c-4.209,1.746-4.207,4.435,0.007,6.011
							c4.214,1.576,11.032,1.651,15.221,0.159C460.764,545.156,460.757,542.451,456.562,540.622z"/>
					</g>
					<g>
						<path d="M428.486,550.823c-4.165-1.336-10.917-1.336-15.081,0c-4.164,1.336-4.167,3.29-0.003,4.361
							c4.165,1.07,10.922,1.07,15.087,0C432.653,554.114,432.65,552.159,428.486,550.823z"/>
					</g>
					<g>
						<path d="M400.312,558.344c-4.1-0.821-10.737-0.738-14.824,0.194c-4.087,0.932-4.093,2.142-0.01,2.688
							c4.083,0.546,10.725,0.449,14.829-0.208C404.41,560.36,404.412,559.165,400.312,558.344z"/>
					</g>
				</g>
				<g>
					<path d="M564.346,425.098c-4.228-4.386-11.257-4.305-15.752,0.19c-4.495,4.495-4.576,11.523-0.19,15.751
						c4.386,4.228,11.46,4.192,15.796-0.145C568.538,436.557,568.574,429.484,564.346,425.098z"/>
					<g>
						<path d="M538.752,450.079c-4.365-4.028-11.593-3.991-16.132,0.034c-4.539,4.025-4.581,10.373-0.098,14.216
							c4.482,3.843,11.703,3.884,16.125,0.044C543.069,460.532,543.117,454.107,538.752,450.079z"/>
					</g>
					<g>
						<path d="M512.148,472.852c-4.437-3.628-11.724-3.651-16.267-0.086c-4.542,3.565-4.559,9.208-0.041,12.629
							c4.518,3.421,11.801,3.5,16.263,0.142C516.565,482.178,516.586,476.48,512.148,472.852z"/>
					</g>
					<g>
						<path d="M484.808,493.318c-4.451-3.193-11.719-3.24-16.226-0.125c-4.507,3.115-4.511,8.035-0.01,11.004
							c4.501,2.969,11.768,3.051,16.225,0.16C489.254,501.467,489.259,496.512,484.808,493.318z"/>
					</g>
					<g>
						<path d="M456.948,511.438c-4.414-2.73-11.592-2.767-16.027-0.093c-4.436,2.675-4.436,6.862,0.001,9.355
							c4.437,2.493,11.616,2.547,16.029,0.109C461.363,518.372,461.362,514.169,456.948,511.438z"/>
					</g>
					<g>
						<path d="M428.788,527.172c-4.331-2.246-11.355-2.246-15.686,0c-4.331,2.246-4.332,5.692-0.002,7.691
							c4.331,1.999,11.358,1.999,15.689,0C433.12,532.864,433.118,529.418,428.788,527.172z"/>
					</g>
					<g>
						<path d="M400.544,540.479c-4.209-1.746-11.021-1.685-15.216,0.144c-4.195,1.829-4.202,4.534-0.012,6.026
							c4.189,1.492,11.008,1.417,15.221-0.159C404.751,544.914,404.752,542.224,400.544,540.479z"/>
					</g>
					<g>
						<path d="M372.434,551.318c-4.053-1.235-10.604-1.095-14.633,0.329c-4.029,1.424-4.043,3.391-0.025,4.369
							c4.018,0.978,10.576,0.81,14.641-0.358C376.481,554.49,376.487,552.553,372.434,551.318z"/>
					</g>
				</g>
				<g>
					<path d="M540.218,398.781c-4.794-4.947-12.777-4.844-17.875,0.254c-5.098,5.098-5.201,13.081-0.254,17.875
						c4.947,4.794,12.958,4.72,17.904-0.225C544.938,411.74,545.012,403.729,540.218,398.781z"/>
					<g>
						<path d="M513.298,425.272c-4.848-4.559-12.879-4.492-17.912,0.11c-5.033,4.602-5.084,11.858-0.132,16.236
							c4.952,4.378,12.957,4.377,17.886-0.043C518.069,437.154,518.146,429.832,513.298,425.272z"/>
					</g>
					<g>
						<path d="M485.673,449.872c-4.83-4.13-12.757-4.12-17.685-0.004c-4.928,4.116-4.948,10.623-0.055,14.548
							s12.801,3.958,17.667,0.046C490.465,460.55,490.503,454.002,485.673,449.872z"/>
					</g>
					<g>
						<path d="M457.608,472.457c-4.75-3.667-12.493-3.678-17.281-0.036c-4.788,3.641-4.791,9.384-0.013,12.831
							c4.778,3.446,12.51,3.477,17.27,0.056C462.344,481.886,462.357,476.124,457.608,472.457z"/>
					</g>
					<g>
						<path d="M429.306,492.968c-4.616-3.179-12.106-3.179-16.722,0c-4.616,3.179-4.613,8.152,0.002,11.099s12.102,2.948,16.717,0
							C433.919,501.12,433.921,496.147,429.306,492.968z"/>
					</g>
					<g>
						<path d="M400.969,511.346c-4.436-2.675-11.614-2.638-16.027,0.093c-4.414,2.73-4.415,6.934-0.002,9.371
							c4.413,2.438,11.592,2.384,16.029-0.109C405.404,518.207,405.405,514.021,400.969,511.346z"/>
					</g>
					<g>
						<path d="M372.799,527.532c-4.218-2.162-11.032-2.067-15.218,0.23c-4.186,2.297-4.196,5.739-0.019,7.661
							c4.177,1.923,10.997,1.797,15.224-0.261C377.013,533.104,377.018,529.694,372.799,527.532z"/>
					</g>
					<g>
						<path d="M344.999,541.469c-3.97-1.647-10.377-1.479-14.313,0.402c-3.935,1.881-3.957,4.574-0.042,5.984
							c3.916,1.41,10.332,1.199,14.323-0.444C348.958,545.767,348.97,543.116,344.999,541.469z"/>
					</g>
				</g>
				<g>
					<path d="M515.002,371.435c-5.373-5.509-14.305-5.406-19.985,0.275c-5.68,5.68-5.783,14.613-0.275,19.985
						c5.509,5.372,14.447,5.276,19.991-0.269C520.278,385.882,520.375,376.944,515.002,371.435z"/>
					<g>
						<path d="M486.997,399.165c-5.329-5.099-14.139-5.022-19.634,0.142c-5.495,5.163-5.537,13.332-0.127,18.261
							c5.41,4.929,14.169,4.903,19.583-0.091C492.232,412.483,492.326,404.264,486.997,399.165z"/>
					</g>
					<g>
						<path d="M458.594,425.329c-5.209-4.644-13.735-4.624-19.011,0.03c-5.275,4.654-5.281,12.032-0.036,16.482
							c5.246,4.449,13.736,4.453,18.975-0.007C463.762,437.374,463.803,429.973,458.594,425.329z"/>
					</g>
					<g>
						<path d="M430.054,449.773c-5.025-4.154-13.192-4.154-18.218,0c-5.026,4.154-5.014,10.727,0.011,14.671
							c5.026,3.944,13.17,3.943,18.196,0C435.068,460.501,435.079,453.928,430.054,449.773z"/>
					</g>
					<g>
						<path d="M401.563,472.421c-4.788-3.641-12.532-3.63-17.281,0.036c-4.75,3.667-4.736,9.429,0.024,12.85
							c4.76,3.421,12.492,3.39,17.27-0.056C406.354,481.805,406.351,476.062,401.563,472.421z"/>
					</g>
					<g>
						<path d="M373.308,493.194c-4.507-3.115-11.775-3.068-16.226,0.125c-4.451,3.193-4.446,8.149,0.011,11.04
							c4.457,2.891,11.724,2.809,16.225-0.16C377.819,501.229,377.815,496.308,373.308,493.194z"/>
					</g>
					<g>
						<path d="M345.476,512.014c-4.192-2.584-10.943-2.484-15.077,0.252c-4.134,2.736-4.145,6.898-0.017,9.26
							s10.884,2.214,15.084-0.3C349.664,518.713,349.668,514.599,345.476,512.014z"/>
					</g>
					<g>
						<path d="M318.251,528.806c-3.852-2.058-10.054-1.892-13.857,0.406s-3.832,5.688-0.055,7.53s9.992,1.619,13.87-0.463
							C322.087,534.196,322.103,530.864,318.251,528.806z"/>
					</g>
				</g>
				<g>
					<path d="M488.799,343.213c-5.958-6.065-15.82-5.991-22.045,0.234c-6.225,6.225-6.299,16.087-0.234,22.045
						c6.065,5.958,15.902,5.86,22.021-0.258C494.659,359.115,494.757,349.278,488.799,343.213z"/>
					<g>
						<path d="M459.968,371.891c-5.803-5.642-15.354-5.584-21.265,0.111c-5.911,5.695-5.919,14.766-0.069,20.261
							c5.851,5.494,15.32,5.466,21.184-0.083C465.682,386.632,465.771,377.532,459.968,371.891z"/>
					</g>
					<g>
						<path d="M431.052,399.334c-5.571-5.167-14.643-5.167-20.214,0c-5.571,5.167-5.543,13.413,0.028,18.404s14.586,4.991,20.158,0
							C436.595,412.748,436.623,404.501,431.052,399.334z"/>
					</g>
					<g>
						<path d="M402.307,425.359c-5.275-4.654-13.802-4.674-19.011-0.03c-5.209,4.644-5.168,12.045,0.071,16.505
							c5.239,4.46,13.729,4.456,18.975,0.007C407.588,437.391,407.582,430.013,402.307,425.359z"/>
					</g>
					<g>
						<path d="M373.902,449.868c-4.928-4.116-12.855-4.126-17.685,0.004c-4.83,4.13-4.793,10.678,0.073,14.59
							c4.866,3.912,12.774,3.88,17.667-0.046S378.83,453.985,373.902,449.868z"/>
					</g>
					<g>
						<path d="M346.008,472.766c-4.542-3.565-11.83-3.542-16.267,0.086s-4.417,9.326,0.045,12.685
							c4.461,3.358,11.745,3.279,16.263-0.142C350.567,481.974,350.551,476.331,346.008,472.766z"/>
					</g>
					<g>
						<path d="M318.795,493.954c-4.129-3.012-10.748-2.94-14.784,0.202c-4.035,3.142-4.039,8.004-0.003,10.814
							c4.037,2.81,10.663,2.672,14.791-0.267C322.927,501.764,322.924,496.967,318.795,493.954z"/>
					</g>
					<g>
						<path d="M292.433,513.338c-3.698-2.468-9.634-2.336-13.263,0.339c-3.629,2.675-3.661,6.726-0.061,9
							c3.601,2.274,9.552,2.07,13.279-0.41C296.115,519.786,296.131,515.806,292.433,513.338z"/>
					</g>
				</g>
				<g>
					<path d="M461.706,314.27c-6.547-6.609-17.301-6.604-24.017,0.112c-6.716,6.716-6.722,17.47-0.113,24.017
						c6.609,6.547,17.3,6.478,23.954-0.175C468.184,331.57,468.253,320.879,461.706,314.27z"/>
					<g>
						<path d="M432.33,343.584c-6.267-6.182-16.504-6.182-22.771,0c-6.267,6.182-6.208,16.132,0.059,22.202
							c6.267,6.07,16.386,6.07,22.653,0C438.538,359.717,438.597,349.767,432.33,343.584z"/>
					</g>
					<g>
						<path d="M403.187,372.002c-5.911-5.695-15.462-5.753-21.265-0.111c-5.803,5.642-5.714,14.741,0.15,20.289
							c5.864,5.548,15.333,5.577,21.184,0.082C409.106,386.768,409.098,377.697,403.187,372.002z"/>
					</g>
					<g>
						<path d="M374.527,399.307c-5.495-5.164-14.305-5.241-19.634-0.142c-5.329,5.099-5.235,13.318,0.178,18.312
							c5.413,4.994,14.173,5.02,19.583,0.091C380.064,412.638,380.021,404.47,374.527,399.307z"/>
					</g>
					<g>
						<path d="M346.503,425.383c-5.033-4.602-13.064-4.67-17.912-0.11c-4.848,4.56-4.77,11.882,0.159,16.303
							c4.929,4.421,12.934,4.421,17.886,0.043C351.587,437.24,351.536,429.985,346.503,425.383z"/>
					</g>
					<g>
						<path d="M319.27,450.113c-4.539-4.025-11.767-4.062-16.133-0.034c-4.365,4.028-4.317,10.453,0.105,14.293
							c4.422,3.841,11.643,3.799,16.125-0.044C323.851,460.486,323.809,454.139,319.27,450.113z"/>
					</g>
					<g>
						<path d="M292.98,473.383c-4.027-3.446-10.442-3.437-14.327,0.072c-3.885,3.509-3.874,9.048,0.031,12.314
							c3.905,3.266,10.328,3.172,14.335-0.156C297.026,482.284,297.008,476.829,292.98,473.383z"/>
					</g>
					<g>
						<path d="M267.788,495.074c-3.509-2.877-9.113-2.813-12.525,0.194c-3.412,3.007-3.442,7.686-0.054,10.392
							c3.388,2.706,9.01,2.557,12.543-0.28C271.285,502.544,271.296,497.951,267.788,495.074z"/>
					</g>
				</g>
				<g>
					<path d="M618.576,463.32c-3.007-3.412-3.071-9.016-0.195-12.525c2.877-3.509,7.47-3.497,10.306,0.035
						c2.837,3.533,2.986,9.155,0.28,12.543C626.262,466.761,621.583,466.731,618.576,463.32z"/>
				</g>
				<g>
					<path d="M636.984,439.412c-2.675-3.629-2.807-9.565-0.339-13.263c2.468-3.698,6.448-3.682,8.929,0.045
						c2.481,3.727,2.684,9.678,0.41,13.279C643.71,443.074,639.658,443.042,636.984,439.412z"/>
				</g>
				<g>
					<path d="M652.519,414.189c-2.298-3.803-2.465-10.005-0.406-13.857c2.058-3.852,5.391-3.836,7.473,0.042
						c2.082,3.878,2.305,10.093,0.463,13.87C658.207,418.02,654.818,417.991,652.519,414.189z"/>
				</g>
				<g>
					<path d="M665.177,387.896c-1.881-3.936-2.049-10.342-0.401-14.313c1.647-3.97,4.298-3.959,5.941,0.031
						c1.644,3.99,1.855,10.407,0.444,14.323C669.752,391.853,667.058,391.831,665.177,387.896z"/>
				</g>
				<g>
					<path d="M674.954,360.782c-1.424-4.029-1.564-10.581-0.329-14.633c1.235-4.053,3.172-4.047,4.34,0.018
						c1.168,4.064,1.336,10.623,0.358,14.641C678.345,364.825,676.379,364.811,674.954,360.782z"/>
				</g>
				<g>
					<path d="M681.845,333.095c-0.932-4.087-1.015-10.724-0.194-14.824c0.821-4.1,2.016-4.099,2.674,0.005
						c0.657,4.104,0.754,10.746,0.208,14.829C683.987,337.188,682.777,337.182,681.845,333.095z"/>
				</g>
				<g>
					<path d="M685.845,305.083c-0.406-4.111-0.406-10.779,0-14.89c0.406-4.111,0.832-4.112,0.946-0.001
						c0.114,4.111,0.114,10.78,0,14.892C686.676,309.195,686.25,309.194,685.845,305.083z"/>
				</g>
				<g>
					<path d="M596.762,439.929c-3.509-3.885-3.518-10.299-0.072-14.327c3.446-4.027,8.902-4.046,12.23-0.039
						c3.328,4.007,3.422,10.43,0.156,14.335C605.81,443.803,600.271,443.814,596.762,439.929z"/>
				</g>
				<g>
					<path d="M617.464,414.571c-3.142-4.035-3.214-10.655-0.202-14.784c3.012-4.129,7.81-4.132,10.748-0.005
						c2.939,4.128,3.077,10.754,0.268,14.791C625.468,418.611,620.605,418.607,617.464,414.571z"/>
				</g>
				<g>
					<path d="M635.574,388.184c-2.736-4.134-2.836-10.885-0.252-15.077c2.584-4.192,6.698-4.189,9.212,0.011
						c2.514,4.199,2.662,10.957,0.3,15.084C642.472,392.329,638.31,392.319,635.574,388.184z"/>
				</g>
				<g>
					<path d="M651.07,361.001c-2.297-4.186-2.392-11-0.23-15.218c2.162-4.218,5.572-4.214,7.631,0.013
						c2.058,4.227,2.184,11.046,0.261,15.224C656.808,365.198,653.367,365.187,651.07,361.001z"/>
				</g>
				<g>
					<path d="M663.929,333.255c-1.829-4.195-1.889-11.007-0.144-15.216c1.746-4.209,4.435-4.207,6.011,0.007
						c1.576,4.214,1.651,11.032,0.159,15.221C668.463,337.457,665.758,337.45,663.929,333.255z"/>
				</g>
				<g>
					<path d="M674.13,305.178c-1.336-4.164-1.336-10.917,0-15.081c1.336-4.165,3.29-4.167,4.361-0.003
						c1.07,4.164,1.07,10.922,0,15.086C677.421,309.346,675.466,309.343,674.13,305.178z"/>
				</g>
				<g>
					<path d="M681.651,277.005c-0.821-4.1-0.738-10.737,0.194-14.824c0.932-4.087,2.142-4.093,2.688-0.01
						c0.546,4.083,0.449,10.725-0.208,14.829C683.667,281.103,682.472,281.105,681.651,277.005z"/>
				</g>
				<g>
					<path d="M573.386,415.445c-4.028-4.365-3.992-11.593,0.034-16.133c4.026-4.539,10.373-4.581,14.216-0.098
						c3.843,4.482,3.884,11.703,0.044,16.126C583.839,419.762,577.414,419.81,573.386,415.445z"/>
				</g>
				<g>
					<path d="M596.159,388.841c-3.628-4.437-3.651-11.724-0.086-16.267c3.565-4.542,9.208-4.559,12.629-0.041
						c3.421,4.518,3.5,11.801,0.142,16.263C605.485,393.258,599.787,393.278,596.159,388.841z"/>
				</g>
				<g>
					<path d="M616.625,361.501c-3.193-4.451-3.24-11.719-0.125-16.226c3.115-4.507,8.035-4.511,11.005-0.01
						c2.969,4.501,3.051,11.768,0.16,16.225C624.774,365.947,619.819,365.952,616.625,361.501z"/>
				</g>
				<g>
					<path d="M634.745,333.641c-2.731-4.414-2.768-11.591-0.093-16.027c2.675-4.436,6.862-4.436,9.355,0.001
						c2.493,4.437,2.547,11.616,0.109,16.029C641.68,338.056,637.476,338.055,634.745,333.641z"/>
				</g>
				<g>
					<path d="M650.479,305.48c-2.246-4.331-2.246-11.355,0-15.685c2.246-4.331,5.692-4.333,7.691-0.002
						c1.999,4.331,1.999,11.358,0,15.689C656.171,309.813,652.725,309.811,650.479,305.48z"/>
				</g>
				<g>
					<path d="M663.786,277.237c-1.745-4.209-1.685-11.021,0.144-15.216c1.829-4.194,4.534-4.202,6.026-0.012
						c1.492,4.19,1.417,11.008-0.159,15.221C668.22,281.444,665.531,281.445,663.786,277.237z"/>
				</g>
				<g>
					<path d="M674.625,249.127c-1.235-4.053-1.095-10.604,0.329-14.633c1.424-4.029,3.391-4.043,4.369-0.025
						c0.978,4.018,0.81,10.576-0.358,14.641C677.798,253.173,675.86,253.18,674.625,249.127z"/>
				</g>
				<g>
					<path d="M548.579,389.991c-4.559-4.848-4.492-12.879,0.11-17.912c4.602-5.033,11.858-5.084,16.236-0.132
						c4.378,4.952,4.377,12.957-0.044,17.886C560.461,394.762,553.139,394.839,548.579,389.991z"/>
				</g>
				<g>
					<path d="M573.18,362.366c-4.13-4.83-4.12-12.757-0.004-17.685c4.116-4.928,10.623-4.947,14.548-0.055
						c3.925,4.893,3.958,12.801,0.046,17.667C583.857,367.158,577.309,367.196,573.18,362.366z"/>
				</g>
				<g>
					<path d="M595.764,334.301c-3.667-4.75-3.678-12.493-0.036-17.281c3.641-4.788,9.384-4.791,12.831-0.013
						c3.446,4.778,3.477,12.51,0.056,17.27C605.193,339.037,599.431,339.05,595.764,334.301z"/>
				</g>
				<g>
					<path d="M616.275,305.999c-3.179-4.616-3.179-12.106,0-16.722c3.179-4.616,8.152-4.613,11.1,0.002
						c2.948,4.615,2.948,12.102,0,16.717C624.427,310.612,619.454,310.614,616.275,305.999z"/>
				</g>
				<g>
					<path d="M634.653,277.662c-2.675-4.436-2.638-11.614,0.093-16.027s6.934-4.415,9.371-0.002
						c2.438,4.413,2.384,11.592-0.109,16.029C641.514,282.097,637.328,282.098,634.653,277.662z"/>
				</g>
				<g>
					<path d="M650.839,249.492c-2.162-4.218-2.067-11.032,0.23-15.218c2.297-4.186,5.739-4.196,7.661-0.019
						c1.923,4.178,1.797,10.997-0.261,15.224C656.412,253.706,653.001,253.71,650.839,249.492z"/>
				</g>
				<g>
					<path d="M664.776,221.692c-1.647-3.97-1.479-10.377,0.401-14.313c1.881-3.936,4.574-3.958,5.984-0.042
						c1.41,3.916,1.199,10.333-0.444,14.323C669.074,225.651,666.423,225.663,664.776,221.692z"/>
				</g>
				<g>
					<path d="M522.472,363.69c-5.099-5.329-5.022-14.139,0.142-19.634c5.164-5.495,13.332-5.537,18.261-0.127
						c4.929,5.41,4.903,14.169-0.091,19.583C535.79,368.925,527.571,369.019,522.472,363.69z"/>
				</g>
				<g>
					<path d="M548.636,335.287c-4.644-5.209-4.624-13.736,0.03-19.011c4.654-5.275,12.032-5.281,16.482-0.036
						c4.449,5.246,4.453,13.736-0.007,18.975C560.681,340.455,553.28,340.496,548.636,335.287z"/>
				</g>
				<g>
					<path d="M573.081,306.747c-4.154-5.026-4.154-13.192,0-18.218c4.154-5.026,10.727-5.015,14.671,0.011
						c3.944,5.026,3.943,13.17,0,18.195C583.808,311.761,577.235,311.772,573.081,306.747z"/>
				</g>
				<g>
					<path d="M595.728,278.256c-3.641-4.788-3.63-12.532,0.036-17.281c3.667-4.75,9.429-4.736,12.85,0.023
						c3.421,4.76,3.39,12.492-0.056,17.27C605.112,283.047,599.369,283.044,595.728,278.256z"/>
				</g>
				<g>
					<path d="M616.5,250.001c-3.115-4.507-3.068-11.775,0.125-16.226c3.193-4.451,8.149-4.446,11.04,0.011
						c2.891,4.458,2.809,11.724-0.16,16.225C624.536,254.512,619.615,254.508,616.5,250.001z"/>
				</g>
				<g>
					<path d="M635.321,222.169c-2.584-4.192-2.484-10.943,0.252-15.077c2.736-4.134,6.898-4.144,9.26-0.017
						c2.362,4.127,2.214,10.884-0.3,15.084C642.02,226.357,637.905,226.361,635.321,222.169z"/>
				</g>
				<g>
					<path d="M652.113,194.944c-2.058-3.852-1.892-10.054,0.406-13.857c2.298-3.803,5.688-3.832,7.53-0.055
						c1.842,3.777,1.618,9.992-0.464,13.87C657.503,198.78,654.171,198.796,652.113,194.944z"/>
				</g>
				<g>
					<path d="M495.198,336.661c-5.641-5.803-5.584-15.354,0.111-21.265c5.695-5.911,14.766-5.919,20.261-0.069
						c5.495,5.85,5.466,15.319-0.082,21.184C509.939,342.375,500.839,342.464,495.198,336.661z"/>
				</g>
				<g>
					<path d="M522.641,307.745c-5.167-5.571-5.167-14.643,0-20.214c5.167-5.571,13.413-5.543,18.404,0.028
						c4.991,5.571,4.991,14.586,0,20.158C536.055,313.288,527.808,313.316,522.641,307.745z"/>
				</g>
				<g>
					<path d="M548.666,279c-4.654-5.275-4.674-13.801-0.03-19.011c4.644-5.209,12.045-5.168,16.505,0.071
						c4.46,5.239,4.456,13.73,0.007,18.975C560.698,284.281,553.32,284.275,548.666,279z"/>
				</g>
				<g>
					<path d="M573.175,250.595c-4.116-4.928-4.126-12.855,0.004-17.685c4.13-4.83,10.678-4.793,14.59,0.073
						c3.912,4.866,3.88,12.774-0.046,17.667C583.798,255.542,577.292,255.523,573.175,250.595z"/>
				</g>
				<g>
					<path d="M596.073,222.701c-3.565-4.542-3.542-11.83,0.086-16.267c3.628-4.437,9.326-4.416,12.685,0.045
						c3.359,4.461,3.28,11.745-0.142,16.263C605.28,227.26,599.638,227.243,596.073,222.701z"/>
				</g>
				<g>
					<path d="M617.261,195.488c-3.012-4.129-2.94-10.748,0.202-14.784c3.142-4.036,8.004-4.039,10.814-0.003
						c2.809,4.037,2.671,10.663-0.268,14.791C625.071,199.62,620.274,199.617,617.261,195.488z"/>
				</g>
				<g>
					<path d="M636.645,169.126c-2.468-3.698-2.336-9.633,0.339-13.263c2.675-3.629,6.726-3.661,9-0.061
						c2.274,3.601,2.07,9.552-0.41,13.278C643.093,172.808,639.113,172.824,636.645,169.126z"/>
				</g>
				<g>
					<path d="M466.891,309.023c-6.182-6.267-6.182-16.504,0-22.771c6.182-6.267,16.132-6.208,22.203,0.059
						c6.07,6.267,6.07,16.386,0,22.653C483.024,315.231,473.074,315.29,466.891,309.023z"/>
				</g>
				<g>
					<path d="M495.309,279.88c-5.695-5.911-5.753-15.462-0.111-21.265c5.641-5.803,14.741-5.714,20.289,0.15
						c5.548,5.864,5.577,15.333,0.082,21.184C510.075,285.799,501.004,285.791,495.309,279.88z"/>
				</g>
				<g>
					<path d="M522.614,251.219c-5.164-5.495-5.241-14.305-0.142-19.634c5.099-5.329,13.318-5.235,18.311,0.178
						c4.994,5.413,5.02,14.173,0.091,19.583C535.945,256.757,527.777,256.714,522.614,251.219z"/>
				</g>
				<g>
					<path d="M548.69,223.196c-4.602-5.033-4.67-13.064-0.11-17.912c4.56-4.848,11.882-4.77,16.303,0.158
						c4.421,4.929,4.421,12.934,0.043,17.886C560.547,228.28,553.292,228.229,548.69,223.196z"/>
				</g>
				<g>
					<path d="M573.42,195.963c-4.026-4.539-4.062-11.767-0.034-16.133c4.028-4.365,10.453-4.317,14.293,0.105
						c3.841,4.422,3.799,11.643-0.044,16.125C583.793,200.544,577.446,200.502,573.42,195.963z"/>
				</g>
				<g>
					<path d="M596.69,169.673c-3.446-4.027-3.436-10.442,0.072-14.327s9.048-3.874,12.314,0.031
						c3.266,3.905,3.172,10.327-0.156,14.335C605.591,173.719,600.136,173.7,596.69,169.673z"/>
				</g>
				<g>
					<path d="M618.381,144.48c-2.877-3.509-2.813-9.113,0.194-12.525c3.007-3.412,7.686-3.442,10.392-0.054
						c2.706,3.388,2.556,9.011-0.28,12.543C625.851,147.978,621.258,147.989,618.381,144.48z"/>
				</g>
				<g>
					<path d="M597.34,109.652c-3.293,3.148-3.292,8.316-0.009,11.599c3.284,3.284,8.452,3.285,11.6-0.009
						c3.148-3.294,3.206-8.522,0.069-11.659C605.862,106.445,600.634,106.504,597.34,109.652z"/>
				</g>
			</g>
		</g>
	</g>
</g>
</svg>
